<svg width="120" height="94" viewBox="0 0 120 94" xmlns="http://www.w3.org/2000/svg"><title>icon/blankslate/announcement</title><g fill="none"><path d="M26.62 65.235l-1.905 5.337a7 7 0 0 0 4.437 9.014l19.613 6.346a7 7 0 0 0 8.416-3.53l3.396-6.791L26.62 65.235zm-.328-2.191l36 11a1 1 0 0 1 .602 1.403l-3.924 7.85a9 9 0 0 1-10.82 4.538l-19.613-6.346A9 9 0 0 1 22.83 69.9l2.227-6.235a1 1 0 0 1 1.234-.62zM2 34v26h6V34H2zm-1-2h8a1 1 0 0 1 1 1v28a1 1 0 0 1-1 1H1a1 1 0 0 1-1-1V33a1 1 0 0 1 1-1zM111 2v90h7V2h-7zm-1-2h9a1 1 0 0 1 1 1v92a1 1 0 0 1-1 1h-9a1 1 0 0 1-1-1V1a1 1 0 0 1 1-1z" fill="#777"/><path fill-opacity=".4" fill="#E2E2E2" d="M10 35v11l99-18V5z"/><path d="M8 35a1 1 0 0 1 .718-.96l101-30A1 1 0 0 1 111 5v84a1 1 0 0 1-1.282.96l-101-30A1 1 0 0 1 8 59V35zm2 .748v22.504l99 29.412V6.336L10 35.748z" fill="#777"/></g></svg>