<svg width="70" height="70" viewBox="0 0 70 70" xmlns="http://www.w3.org/2000/svg"><title>boss</title><path d="M67.925 62.347a4.016 4.016 0 0 0-.05-.117c-.213-.21-.442-.422-.688-.638-2.156-1.894-5.446-3.94-9.552-6.042-2.766-1.416-5.733-2.774-8.7-4.023a139.61 139.61 0 0 0-3.67-1.484 41.902 41.902 0 0 0-.28-.107 1 1 0 0 1 .704-1.872l.293.112a141.6 141.6 0 0 1 3.728 1.508c3.01 1.267 6.022 2.644 8.836 4.086 4.241 2.171 7.655 4.294 9.961 6.32.326.286.63.57.91.853a1 1 0 0 1 .186.26 5.562 5.562 0 0 1 .27.653c.08.24.127.453.127.674v5c0 1.433-1.03 2.47-2.46 2.47H43a1 1 0 1 1 0-2h24.54c.322 0 .46-.139.46-.47-.005-3.328-.013-5.01-.025-5.045a2.535 2.535 0 0 0-.05-.138zm-65.09-.744c-.304.258-.587.512-.831.747a2.29 2.29 0 0 0-.004.18v5c0 .331.138.47.46.47H27a1 1 0 1 1 0 2H2.46C1.03 70 0 68.963 0 67.53v-5c0-.301.01-.456.066-.683a1.94 1.94 0 0 1 .533-.921c.292-.28.606-.563.942-.848 2.324-1.973 5.662-4.044 9.76-6.165 2.847-1.473 5.893-2.883 8.937-4.184a145.379 145.379 0 0 1 3.771-1.548l.297-.115a1 1 0 1 1 .714 1.868l-.283.11a143.388 143.388 0 0 0-3.713 1.525c-3.003 1.282-6.005 2.673-8.803 4.12-3.976 2.058-7.2 4.057-9.386 5.914zm46.442-33.167c-.48 3.733-2.372 7.335-5.274 10.31V45a1 1 0 1 1-2 0v-6.667a1 1 0 0 1 .297-.711c2.961-2.923 4.802-6.517 5.065-10.153a1 1 0 0 1 .997-.927c1.773 0 2.267-2.6.74-3.354a1 1 0 0 1-.505-1.216c.557-1.649.834-3.29.834-4.93C49.43 8.765 43.006 2 35.066 2c-8 0-14.365 6.535-14.365 14.75 0 1.64.277 3.282.834 4.93a1 1 0 0 1-.546 1.236c-1.668.732-1.091 3.334.78 3.334a1 1 0 0 1 .998.928c.268 3.704 2.045 7.296 4.938 10.152a1 1 0 0 1 .298.712V45a1 1 0 1 1-2 0v-6.546c-2.844-2.924-4.676-6.528-5.15-10.307-2.984-.7-3.886-4.773-1.457-6.604a17.12 17.12 0 0 1-.695-4.793C18.701 7.442 25.951 0 35.066 0c9.068 0 16.365 7.683 16.365 17.042a17.14 17.14 0 0 1-.706 4.831c2.224 1.86 1.449 5.861-1.448 6.563zM40.68 49.23c1.533.697 1.65 2.262.958 4.253-.43 1.244-1.169 2.643-2.059 4.061a1 1 0 0 1-.96.462 32.205 32.205 0 0 0-7.306 0 1 1 0 0 1-.96-.462c-2.283-3.636-3.3-6.749-1.228-8.251.304-.178.834-.423 1.57-.66 2.863-.926 6.266-.926 9.985.597zm-9.37 1.306c-.59.19-.99.375-1.091.428-.567.413.098 2.598 1.506 4.989a34.173 34.173 0 0 1 6.485 0c.67-1.117 1.218-2.2 1.539-3.125.212-.611.306-1.11.28-1.446-.014-.206-.048-.27-.13-.31-3.246-1.324-6.158-1.323-8.59-.536zm4.72 10.706a1 1 0 0 1 1.941-.486l2 8a1 1 0 0 1-1.94.486l-2-8zm-4.059 8a1 1 0 0 1-1.94-.486l2-8a1 1 0 0 1 1.94.486l-2 8z" fill="#A9B8C5"/></svg>