<svg width="95" height="70" viewBox="0 0 95 70" xmlns="http://www.w3.org/2000/svg"><title>dept</title><path d="M67.655 55.053c1.248.61 2.345 1.694 2.345 2.614v8.814C70 68.296 68.275 70 66.45 70H3.55C1.725 70 0 68.296 0 66.481v-8.814c0-1.225.996-2.373 2.314-3.022.243-.1 2.645-1.104 3.34-1.395 1.273-.533 2.332-.98 3.336-1.406 10.663-4.537 16.294-7.59 16.935-9.432v-2.804c-2.269-2.356-4.142-5.643-4.986-9.047-2.752-2.078-3.468-6.123-1.389-8.92v-7.209C19.55 5.482 25.1 0 35 0c10.178 0 15.45 5.325 15.45 14.432v7.683c1.765 2.898 1.209 6.87-1.388 8.863-.788 3.185-2.371 5.858-4.987 9.003v2.788c1.274 2.588 10.82 7.437 23.58 12.284zM42.14 43.33a1 1 0 0 1-.065-.355v-3.358a1 1 0 0 1 .236-.645c2.673-3.168 4.197-5.736 4.888-8.809a1 1 0 0 1 .426-.615c1.997-1.315 2.447-4.431.996-6.581a1 1 0 0 1-.171-.56v-7.975C48.45 6.425 44.07 2 35 2c-8.8 0-13.45 4.592-13.45 12.432v7.556a1 1 0 0 1-.236.645c-1.659 1.966-1.097 5.074 1.06 6.495a1 1 0 0 1 .427.615c.742 3.302 2.606 6.55 4.827 8.743a1 1 0 0 1 .297.712v3.358a1 1 0 0 1-.03.245c-.714 2.82-6.151 5.79-18.123 10.883-1.007.429-2.07.876-3.345 1.41-.689.289-3.048 1.274-3.292 1.375C2.488 56.79 2 57.354 2 57.667v8.814C2 67.186 2.825 68 3.55 68h62.9c.725 0 1.55-.814 1.55-1.519v-8.673a1.986 1.986 0 0 0-.234-.27 3.746 3.746 0 0 0-.87-.634c-13.838-5.26-23.47-10.187-24.756-13.574zm29.595 3.51v3.307c.449.627 2.157 1.252 5.516 1.963.842.178 4.75.95 5.836 1.178 2.533.53 4.647 1.046 6.68 1.655a47.5 47.5 0 0 1 3.46 1.177c1.126.57 1.773 1.717 1.773 2.96v7.853C95 68.723 93.739 70 91.96 70H74a1 1 0 1 1 0-2h17.96c.669 0 1.04-.376 1.04-1.067V59.08c0-.498-.235-.93-.636-1.153a47.497 47.497 0 0 0-3.171-1.067c-1.972-.59-4.034-1.093-6.516-1.614-1.07-.224-4.981-.996-5.84-1.178-4.4-.932-6.352-1.694-7.023-3.279a1 1 0 0 1-.08-.39v-4.547a1 1 0 0 1 1-1c4.17 0 7.573-.6 10.267-1.592.756-.278 1.407-.57 1.958-.863-1.401-1.669-2.447-4.69-3.295-8.79a79.56 79.56 0 0 1-1.049-6.588 88.99 88.99 0 0 1-.233-2.168 30.279 30.279 0 0 1-.076-.907c0-12.87-14.18-20.558-23.676-12.865a1 1 0 1 1-1.26-1.554C64.224.731 80.306 9.45 80.303 23.867a86.994 86.994 0 0 0 .298 2.913c.262 2.191.6 4.382 1.022 6.42.943 4.56 2.19 7.688 3.509 8.49a1 1 0 0 1 .11 1.631c-.594.481-1.76 1.156-3.55 1.815-2.693.992-6 1.614-9.957 1.704z" fill="#A9B8C5"/></svg>