<svg width="72" height="70" viewBox="0 0 72 70" xmlns="http://www.w3.org/2000/svg"><title>download</title><path d="M51.618 68l-4.724-9.447a1 1 0 0 0-1.788.894L49.382 68H22.618l4.276-8.553a1 1 0 0 0-1.788-.894L20.382 68H16a1 1 0 0 0 0 2h40a1 1 0 0 0 0-2h-4.382zM35 32.586V1a1 1 0 0 1 2 0v31.586l8.293-8.293a1 1 0 0 1 1.414 1.414l-10 10a1 1 0 0 1-1.414 0l-10-10a1 1 0 0 1 1.414-1.414L35 32.586zM26 9a1 1 0 0 1 0 2H6a4 4 0 0 0-4 4v34a4 4 0 0 0 4 4h60a4 4 0 0 0 4-4V15a4 4 0 0 0-4-4H46a1 1 0 0 1 0-2h20a6 6 0 0 1 6 6v34a6 6 0 0 1-6 6H6a6 6 0 0 1-6-6V15a6 6 0 0 1 6-6h20z" fill="#A9B8C5"/></svg>