<svg width="72" height="70" viewBox="0 0 72 70" xmlns="http://www.w3.org/2000/svg"><title>edit</title><path d="M21 53v8a1 1 0 0 1-1 1H8a1 1 0 0 1-1-1V21a1 1 0 0 1 1-1h36a1 1 0 0 1 1 1v8a1 1 0 0 1-1 1H33v15a1 1 0 0 1-1 1H21v7zM37.75.032a1.002 1.002 0 0 1 .927.232 4 4 0 0 1 1.414.922l10.752 10.862a4 4 0 0 1 .817 1.2.998.998 0 0 1 .298 1.038 4 4 0 0 1 .042.576V26a1 1 0 0 1-2 0V15H38a1 1 0 0 1-1-1V2H4a2 2 0 0 0-2 2v62a2 2 0 0 0 2 2h16a1 1 0 0 1 0 2H4a4 4 0 0 1-4-4V4a4 4 0 0 1 4-4h33.248a4 4 0 0 1 .502.032zM48.97 13L39 2.927V13h9.97zM9 28h10v-6H9v6zm12 0h10v-6H21v6zm12 0h10v-6H33v6zM9 36h10v-6H9v6zm12 0h10v-6H21v6zM9 44h10v-6H9v6zm12 0h10v-6H21v6zM9 52h10v-6H9v6zm0 8h10v-6H9v6zm61.695-30.719c1.603 1.602 1.603 4.236.014 5.824l-29.6 29.8a1 1 0 0 1-1.416.002l-10.4-10.4a1 1 0 0 1 0-1.414l29.6-29.6c1.59-1.59 4.224-1.59 5.802-.012l6 5.8zm-7.402-4.374c-.81-.81-2.176-.81-2.986 0L31.414 53.8l8.984 8.983 28.895-29.09c.808-.808.81-2.17.005-2.98l-6.005-5.806zM25.565 64.98a1 1 0 0 1 1.414-1.414l3.528 3.528a1 1 0 0 1-1.414 1.414l-3.528-3.528zm11.342-4.272a1 1 0 0 1-1.414-1.414l24.2-24.2a1 1 0 0 1 1.414 1.414l-24.2 24.2zm2.593 2.808a8.75 8.75 0 0 0 .328-.135 1 1 0 0 1 1.572.82c0 .555-.114.65-.532.894a2.148 2.148 0 0 1-.192.097c-.109.05-.255.11-.444.185-.338.133-.82.313-1.438.537a344.7 344.7 0 0 1-4.34 1.528l-.227.079a1045.766 1045.766 0 0 1-6.51 2.229c-1.983.66-3.926-1.283-3.263-3.274l.193-.56a1782.19 1782.19 0 0 1 2.06-5.946l.052-.149c1.944-5.568 2.263-6.457 2.534-6.727a1 1 0 0 1 1.414 1.414c.131-.131.092-.05.135-.153a14.87 14.87 0 0 0-.152.39c-.127.336-.302.815-.521 1.425a538.54 538.54 0 0 0-1.521 4.31l-.052.15a1559.943 1559.943 0 0 0-2.058 5.938l-.19.55c-.139.417.318.874.731.736a654.862 654.862 0 0 0 2.03-.69c1.522-.52 3.044-1.041 4.464-1.533l.226-.078a336.735 336.735 0 0 0 4.314-1.52 58.29 58.29 0 0 0 1.387-.517z" fill="#A9B8C5"/></svg>