<svg width="40" height="40" viewBox="0 0 40 40" xmlns="http://www.w3.org/2000/svg"><title>Shape</title><path d="M15.512.013c.35-.038.711.006 1.048.15l3.444 1.713L23.498.19c.758-.38 1.86-.135 2.47.604l2.272 3.123 3.843.126c.902 0 1.76.762 1.897 1.737l.574 3.803 3.344 1.913c.84.564 1.176 1.477.924 2.367l-1.248 3.702 2.021 3.273c.637.819.512 1.936-.3 2.62l-2.744 2.668.3 3.903c.127.897-.5 1.842-1.448 2.116l-3.644 1.032-1.523 3.576c-.364.856-1.238 1.347-2.196 1.208l-3.843-.805-2.945 2.467a2.145 2.145 0 0 1-1.248.378 2.33 2.33 0 0 1-1.248-.378l-.05-.05-2.895-2.417-3.793.805c-.112.035-.278.05-.45.05-.77 0-1.472-.497-1.796-1.258L8.25 33.15l-3.72-1.082c-.852-.245-1.448-1.098-1.448-2.065l.275-3.953-2.77-2.72a2.055 2.055 0 0 1-.25-2.568l2.022-3.274-1.248-3.676c-.265-.932.084-1.835.873-2.367L5.38 9.506l.574-3.802c.124-.891.851-1.574 1.796-1.713l.1-.025 3.918-.075L14.09.819c.297-.454.843-.743 1.423-.806zM8.044 24.5v-3.324h3.986v-1.5H8.044v-1.68h4.073v-1.5H6.292V24.5h1.752zm11.97 0l-1.863-3.048c.888-.204 1.814-.972 1.814-2.376 0-1.488-1.061-2.58-2.777-2.58h-3.85V24.5h1.753v-2.844h1.283l1.617 2.844h2.023zm-3.072-4.344H15.09v-2.16h1.85c.692 0 1.222.408 1.222 1.068 0 .684-.53 1.092-1.221 1.092zM27.098 24.5V23h-4.073v-1.824h3.986v-1.5h-3.986v-1.68h4.073v-1.5h-5.825V24.5h5.825zm7.194 0V23H30.22v-1.824h3.986v-1.5H30.22v-1.68h4.072v-1.5h-5.825V24.5h5.825z" fill="#F96D01"/></svg>