<svg width="70" height="70" viewBox="0 0 70 70" xmlns="http://www.w3.org/2000/svg"><title>google</title><path d="M33.115 44.177V26.793h2.505l31.232.047h1.96l.187.762.289 1.183c1.7 7.927.42 17.79-4.012 25.603C59.725 64.17 49.614 70 35.62 70 15.968 70 0 54.318 0 35 0 15.682 15.968 0 35.62 0c8.986 0 17.486 3.298 24 9.126l1.902 1.713-.727.745-1.097 1.124L48.76 23.451l-.694-.563-1.095-.889c-3.17-2.666-7.14-4.154-11.351-4.154-9.67 0-17.486 7.675-17.486 17.155s7.815 17.155 17.486 17.155c6.45 0 11.334-2.913 14.106-7.978H33.115zm25.169-33.562C52.136 5.114 44.11 2 35.62 2 17.065 2 2 16.795 2 35s15.065 33 33.62 33c13.278 0 22.722-5.445 27.917-14.6 4.183-7.37 5.397-16.733 3.803-24.168l-.096-.392h-.393l-31.231-.047h-.505v13.384h17.747l-.616 1.402c-2.92 6.645-8.799 10.576-16.626 10.576-10.767 0-19.486-8.563-19.486-19.155s8.719-19.155 19.486-19.155a19.54 19.54 0 0 1 12.624 4.612l.389.315 9.649-9.476.355-.363-.353-.318z" fill="#A9B8C5" fill-opacity=".5" opacity=".5"/></svg>