<svg width="120" height="120" viewBox="0 0 120 120" xmlns="http://www.w3.org/2000/svg"><title>icons8-clock_filled</title><defs><linearGradient x1="0%" y1="0%" y2="100%" id="a"><stop stop-color="#FFDB3D" offset="0%"/><stop stop-color="#FFBD34" offset="100%"/></linearGradient></defs><path d="M60 0C26.916 0 0 26.916 0 60s26.916 60 60 60 60-26.916 60-60S93.084 0 60 0zm0 67.2a7.106 7.106 0 0 1-3.084-.722l-14.42 14.419a2.384 2.384 0 0 1-1.696.703 2.4 2.4 0 0 1-1.697-4.097l14.419-14.419A7.106 7.106 0 0 1 52.8 60c0-3.131 2.006-5.766 4.8-6.76V14.4c0-1.322 1.078-2.4 2.4-2.4 1.322 0 2.4 1.078 2.4 2.4v38.84c2.784.994 4.8 3.629 4.8 6.76 0 3.975-3.225 7.2-7.2 7.2z" fill="url(#a)"/></svg>