<svg width="120" height="120" viewBox="0 0 120 120" xmlns="http://www.w3.org/2000/svg"><title>Shape</title><defs><linearGradient x1="0%" y1="0%" y2="100%" id="a"><stop stop-color="#FF5AA1" offset="0%"/><stop stop-color="#9552E0" offset="100%"/></linearGradient></defs><path d="M60 0v10.8c9.6 0 5.52 3.6 14.4 3.6h4.8V4.8h-4.8C65.52 4.8 69.6 0 60 0zm0 16.8c-16.383 0-29.803 12.73-31.05 28.8h-.15a2.4 2.4 0 0 0 0 4.8v12h4.8v-12h4.8v12h4.8v-12H48v12h4.8v-12h4.8v12h4.8v-12h4.8v12H72v-12h4.8v12h4.8v-12h4.8v12h4.8v-12a2.4 2.4 0 1 0 0-4.8h-.15C89.803 29.53 76.383 16.8 60 16.8zm-60 48V120h120V64.8H0zm12 12h9.6V84H12v-7.2zm16.8 0h9.6V84h-9.6v-7.2zm16.8 0h9.6V84h-9.6v-7.2zm16.8 0H72V84h-9.6v-7.2zm16.8 0h9.6V84h-9.6v-7.2zm16.8 0h9.6V84H96v-7.2zm-84 12h9.6V96H12v-7.2zm16.8 0h9.6V96h-9.6v-7.2zm16.8 0h9.6V96h-9.6v-7.2zm16.8 0H72V96h-9.6v-7.2zm16.8 0h9.6V96h-9.6v-7.2zm16.8 0h9.6V96H96v-7.2zm-84 12h9.6v7.2H12v-7.2zm16.8 0h9.6v7.2h-9.6v-7.2zm16.8 0h9.6v7.2h-9.6v-7.2zm16.8 0H72v7.2h-9.6v-7.2zm16.8 0h9.6v7.2h-9.6v-7.2zm16.8 0h9.6v7.2H96v-7.2z" fill="url(#a)"/></svg>