<svg width="108" height="120" viewBox="0 0 108 120" xmlns="http://www.w3.org/2000/svg"><title>D3087088-50B1-4DAF-A44A-CA0E3BDBD8FE</title><g fill="none"><path d="M108 104.21C108 120 95.294 120 95.294 120H9.53V0H108v104.21z" fill="#C5CAE9"/><path d="M22.235 22.105h9.53v9.474h-9.53zm19.059 0h54v9.474h-54zM22.235 41.052h9.53v9.474h-9.53zm19.059 0h54v9.474h-54zM22.235 60h9.53v9.474h-9.53zm19.059 0h54v9.474h-54z" fill="#7986CB"/><path d="M82.588 104.21V88.422H0v15.79C0 112.933 3.932 120 12.706 120h82.588c-8.773 0-12.706-7.067-12.706-15.79z" fill="#3F51B5"/></g></svg>