<svg width="40" height="34" viewBox="0 0 40 34" xmlns="http://www.w3.org/2000/svg"><title>icons8-contact_card</title><g fill="none"><path d="M31.053 33.469v-.291a2.128 2.128 0 0 0 1.052-1.834A2.117 2.117 0 0 0 30 29.219a2.117 2.117 0 0 0-2.105 2.125v2.125h-15.79v-2.125A2.117 2.117 0 0 0 10 29.219a2.117 2.117 0 0 0-2.105 2.125c0 .763.41 1.459 1.052 1.834v.29H.527V.532h38.947V33.47h-8.421z" fill="#E2E2E2"/><path d="M38.947 1.063v31.875H32.1a2.66 2.66 0 0 0 .532-1.594c0-1.465-1.18-2.657-2.632-2.657-1.452 0-2.632 1.192-2.632 2.657v1.593H12.632v-1.593c0-1.465-1.18-2.657-2.632-2.657-1.452 0-2.632 1.192-2.632 2.657 0 .587.195 1.143.532 1.593H1.053V1.064h37.894zM40 0H0v34h9.474v-1.16a1.589 1.589 0 0 1-1.053-1.496c0-.88.707-1.594 1.579-1.594s1.579.714 1.579 1.594V34H28.42v-2.656c0-.88.707-1.594 1.579-1.594s1.579.714 1.579 1.594c0 .692-.441 1.277-1.053 1.496V34H40V0z" fill="#777"/><ellipse fill="#FFF" cx="11.579" cy="11.688" rx="4.211" ry="4.25"/><path d="M17.895 23.375H5.263C5.263 19.854 8.091 17 11.58 17s6.316 2.854 6.316 6.375zM33.684 12.75H23.158a1.058 1.058 0 0 1-1.053-1.063c0-.586.472-1.062 1.053-1.062h10.526c.581 0 1.053.476 1.053 1.063 0 .586-.472 1.062-1.053 1.062zm0 4.25H23.158a1.058 1.058 0 0 1-1.053-1.063c0-.586.472-1.062 1.053-1.062h10.526c.581 0 1.053.476 1.053 1.063 0 .586-.472 1.062-1.053 1.062zm0 4.25H23.158a1.058 1.058 0 0 1-1.053-1.063c0-.586.472-1.062 1.053-1.062h10.526c.581 0 1.053.476 1.053 1.063 0 .586-.472 1.062-1.053 1.062z" fill="#FFF"/></g></svg>