<svg width="101" height="120" viewBox="0 0 101 120" xmlns="http://www.w3.org/2000/svg"><title>icons8-skyscrapers</title><g fill="none"><path fill="#4527A0" d="M6.313 25.263L25.25 15.79v60.632H6.312z"/><path fill="#673AB7" d="M0 34.737l31.563-15.79V120H0z"/><path fill="#4527A0" d="M15.781 120h15.781V18.947l-15.78 7.895z"/><path fill="#BA68C8" d="M22.093 34.737h-3.156v-3.158h3.156z"/><path fill="#CE93D8" d="M12.625 34.737h3.156v-3.158l-3.156 1.579z"/><path fill="#BA68C8" d="M25.25 28.421h3.156v-3.158l-3.156 1.58zm-3.157 12.631h-3.156v-3.158h3.156z"/><path fill="#CE93D8" d="M15.781 41.052h-3.156v-3.158h3.156zm-6.313 0H6.312v-3.158h3.156z"/><path fill="#BA68C8" d="M22.093 47.368h-3.156V44.21h3.156z"/><path fill="#CE93D8" d="M15.781 47.368h-3.156V44.21h3.156zm-6.313 0H6.312V44.21h3.156z"/><path fill="#BA68C8" d="M22.093 53.685h-3.156v-3.158h3.156z"/><path fill="#CE93D8" d="M15.781 53.685h-3.156v-3.158h3.156zm-6.313 0H6.312v-3.158h3.156z"/><path fill="#BA68C8" d="M22.093 60h-3.156v-3.158h3.156z"/><path fill="#CE93D8" d="M15.781 60h-3.156v-3.158h3.156zm-6.313 0H6.312v-3.158h3.156z"/><path fill="#BA68C8" d="M22.093 66.316h-3.156v-3.158h3.156z"/><path fill="#CE93D8" d="M15.781 66.316h-3.156v-3.158h3.156zm-6.313 0H6.312v-3.158h3.156z"/><path fill="#BA68C8" d="M22.093 72.631h-3.156v-3.158h3.156z"/><path fill="#CE93D8" d="M15.781 72.631h-3.156v-3.158h3.156zm-6.313 0H6.312v-3.158h3.156z"/><path fill="#BA68C8" d="M22.093 78.948h-3.156V75.79h3.156z"/><path fill="#CE93D8" d="M15.781 78.948h-3.156V75.79h3.156zm-6.313 0H6.312V75.79h3.156z"/><path fill="#BA68C8" d="M22.093 85.263h-3.156v-3.158h3.156z"/><path fill="#CE93D8" d="M15.781 85.263h-3.156v-3.158h3.156zm-6.313 0H6.312v-3.158h3.156z"/><path fill="#BA68C8" d="M22.093 91.579h-3.156v-3.158h3.156z"/><path fill="#CE93D8" d="M15.781 91.579h-3.156v-3.158h3.156zm-6.313 0H6.312v-3.158h3.156z"/><path fill="#BA68C8" d="M22.093 97.895h-3.156v-3.158h3.156z"/><path fill="#CE93D8" d="M15.781 97.895h-3.156v-3.158h3.156zm-6.313 0H6.312v-3.158h3.156z"/><path fill="#BA68C8" d="M22.093 104.21h-3.156v-3.158h3.156z"/><path fill="#CE93D8" d="M15.781 104.21h-3.156v-3.158h3.156zm-6.313 0H6.312v-3.158h3.156z"/><path fill="#BA68C8" d="M22.093 110.527h-3.156v-3.158h3.156z"/><path fill="#CE93D8" d="M15.781 110.527h-3.156v-3.158h3.156zm-6.313 0H6.312v-3.158h3.156z"/><path fill="#BA68C8" d="M22.093 116.842h-3.156v-3.158h3.156zm6.313-82.105H25.25v-3.158h3.156zm0 6.315H25.25v-3.158h3.156zm0 6.316H25.25V44.21h3.156zm0 6.317H25.25v-3.158h3.156zm0 6.315H25.25v-3.158h3.156zm0 6.316H25.25v-3.158h3.156zm0 6.315H25.25v-3.158h3.156zm0 6.317H25.25V75.79h3.156zm0 6.315H25.25v-3.158h3.156zm0 6.316H25.25v-3.158h3.156zm0 6.316H25.25v-3.158h3.156zm0 6.315H25.25v-3.158h3.156zm0 6.317H25.25v-3.158h3.156zm0 6.315H25.25v-3.158h3.156z"/><path fill="#CE93D8" d="M15.781 116.842h-3.156v-3.158h3.156zm-6.313 0H6.312v-3.158h3.156z"/><path fill="#3F51B5" d="M66.281 31.579H101V120H66.281z"/><path fill="#1A237E" d="M66.281 31.579h12.625V120H66.281z"/><path fill="#90CAF9" d="M28.406 12.632h41.031V120H28.406z"/><path fill="#BBDEFB" d="M34.719 0h28.406v12.632H34.719z"/><path fill="#1E88E5" d="M41.031 15.789h3.156v3.158h-3.156zm6.313 0H50.5v3.158h-3.156zm6.312 0h3.156v3.158h-3.156zM47.344 3.158H50.5v6.316h-3.156zm-6.313 0h3.156v6.316h-3.156zm12.625 0h3.156v6.316h-3.156zm6.313 12.631h3.156v3.158h-3.156z"/><path fill="#9FA8DA" d="M78.906 37.895h3.156v3.158h-3.156zm6.313 0h3.156v3.158h-3.156zm6.312 0h3.156v3.158h-3.156zm-12.625 6.316h3.156v3.158h-3.156zm6.313 0h3.156v3.158h-3.156zm6.312 0h3.156v3.158h-3.156zm-12.625 6.315h3.156v3.158h-3.156zm6.313 0h3.156v3.158h-3.156zm6.312 0h3.156v3.158h-3.156zm-12.625 6.316h3.156V60h-3.156zm6.313 0h3.156V60h-3.156zm6.312 0h3.156V60h-3.156zm-12.625 6.316h3.156v3.158h-3.156zm6.313 0h3.156v3.158h-3.156zm6.312 0h3.156v3.158h-3.156zm-12.625 6.316h3.156v3.158h-3.156zm6.313 0h3.156v3.158h-3.156zm6.312 0h3.156v3.158h-3.156zm-12.625 6.315h3.156v3.158h-3.156zm6.313 0h3.156v3.158h-3.156zm6.312 0h3.156v3.158h-3.156zm-12.625 6.316h3.156v3.158h-3.156zm6.313 0h3.156v3.158h-3.156zm6.312 0h3.156v3.158h-3.156zm-12.625 6.316h3.156v3.158h-3.156zm6.313 0h3.156v3.158h-3.156zm6.312 0h3.156v3.158h-3.156zm-12.625 6.316h3.156v3.158h-3.156zm6.313 0h3.156v3.158h-3.156zm6.312 0h3.156v3.158h-3.156zm-12.625 6.316h3.156v3.158h-3.156zm6.313 0h3.156v3.158h-3.156zm6.312 0h3.156v3.158h-3.156zm-12.625 6.315h3.156v3.158h-3.156zm6.313 0h3.156v3.158h-3.156zm6.312 0h3.156v3.158h-3.156zm-12.625 6.316h3.156v3.158h-3.156z"/><path fill="#7986CB" d="M72.594 37.895h3.156v3.158h-3.156zm0 6.316h3.156v3.158h-3.156zm0 6.315h3.156v3.158h-3.156zm0 6.316h3.156V60h-3.156zm0 6.316h3.156v3.158h-3.156zm0 6.316h3.156v3.158h-3.156zm0 6.315h3.156v3.158h-3.156zm0 6.316h3.156v3.158h-3.156zm0 6.316h3.156v3.158h-3.156zm0 6.316h3.156v3.158h-3.156zm0 6.316h3.156v3.158h-3.156zm0 6.315h3.156v3.158h-3.156zm0 6.316h3.156v3.158h-3.156z"/><path fill="#9FA8DA" d="M85.219 113.684h3.156v3.158h-3.156zm6.312 0h3.156v3.158h-3.156z"/><path fill="#1E88E5" d="M41.031 22.105h3.156v3.158h-3.156zm6.313 0H50.5v3.158h-3.156zm6.312 0h3.156v3.158h-3.156zm6.313 0h3.156v3.158h-3.156zm-18.938 6.316h3.156v3.158h-3.156zm6.313 0H50.5v3.158h-3.156zm6.312 0h3.156v3.158h-3.156zm6.313 0h3.156v3.158h-3.156zm-18.938 6.316h3.156v3.158h-3.156zm6.313 0H50.5v3.158h-3.156zm6.312 0h3.156v3.158h-3.156zm6.313 0h3.156v3.158h-3.156zm-18.938 6.316h3.156v3.158h-3.156zm6.313 0H50.5v3.158h-3.156zm6.312 0h3.156v3.158h-3.156zm6.313 0h3.156v3.158h-3.156zm-18.938 6.315h3.156v3.158h-3.156zm6.313 0H50.5v3.158h-3.156zm6.312 0h3.156v3.158h-3.156zm6.313 0h3.156v3.158h-3.156zm-18.938 6.316h3.156v3.158h-3.156zm6.313 0H50.5v3.158h-3.156zm6.312 0h3.156v3.158h-3.156zm6.313 0h3.156v3.158h-3.156zM41.031 60h3.156v3.158h-3.156zm6.313 0H50.5v3.158h-3.156zm6.312 0h3.156v3.158h-3.156zm6.313 0h3.156v3.158h-3.156zm-18.938 6.316h3.156v3.158h-3.156zm6.313 0H50.5v3.158h-3.156zm6.312 0h3.156v3.158h-3.156zm6.313 0h3.156v3.158h-3.156zm-18.938 6.316h3.156v3.158h-3.156zm6.313 0H50.5v3.158h-3.156zm6.312 0h3.156v3.158h-3.156zm6.313 0h3.156v3.158h-3.156zm-18.938 6.315h3.156v3.158h-3.156zm6.313 0H50.5v3.158h-3.156zm6.312 0h3.156v3.158h-3.156zm6.313 0h3.156v3.158h-3.156zm-18.938 6.316h3.156v3.158h-3.156zm6.313 0H50.5v3.158h-3.156zm6.312 0h3.156v3.158h-3.156zm6.313 0h3.156v3.158h-3.156zm-18.938 6.316h3.156v3.158h-3.156zm6.313 0H50.5v3.158h-3.156zm6.312 0h3.156v3.158h-3.156zm6.313 0h3.156v3.158h-3.156zm-18.938 6.316h3.156v3.158h-3.156zm6.313 0H50.5v3.158h-3.156zm6.312 0h3.156v3.158h-3.156zm6.313 0h3.156v3.158h-3.156zm-18.938 6.316h3.156v3.158h-3.156zm6.313 0H50.5v3.158h-3.156zm6.312 0h3.156v3.158h-3.156zm6.313 0h3.156v3.158h-3.156zm-18.938 6.315h3.156v3.158h-3.156zm6.313 0H50.5v3.158h-3.156zm6.312 0h3.156v3.158h-3.156zm6.313 0h3.156v3.158h-3.156zm-18.938 6.316h3.156V120h-3.156zM34.719 15.789h3.156v3.158h-3.156zm0 6.316h3.156v3.158h-3.156zm0 6.316h3.156v3.158h-3.156zm0 6.316h3.156v3.158h-3.156zm0 6.316h3.156v3.158h-3.156zm0 6.315h3.156v3.158h-3.156zm0 6.316h3.156v3.158h-3.156zm0 6.316h3.156v3.158h-3.156zm0 6.316h3.156v3.158h-3.156zm0 6.316h3.156v3.158h-3.156zm0 6.315h3.156v3.158h-3.156zm0 6.316h3.156v3.158h-3.156zm0 6.316h3.156v3.158h-3.156zm0 6.316h3.156v3.158h-3.156zm0 6.316h3.156v3.158h-3.156zm0 6.315h3.156v3.158h-3.156zm0 6.316h3.156V120h-3.156zm12.625 0H50.5V120h-3.156zm6.312 0h3.156V120h-3.156zm6.313 0h3.156V120h-3.156z"/><path fill="#303F9F" d="M75.75 25.263h18.938v6.316H75.75z"/><path fill="#1A237E" d="M72.594 25.263h6.313v6.316h-6.313z"/></g></svg>