<svg width="50" height="65" viewBox="0 0 50 65" xmlns="http://www.w3.org/2000/svg" xmlns:xlink="http://www.w3.org/1999/xlink"><title>icon-luna</title><defs><path id="a" d="M.115.204h21.697v57.174H.115z"/><path id="c" d="M0 64.796h49.905V.286H0z"/></defs><g fill="none" fill-rule="evenodd"><path d="M49.288 64.796l.001-.085c-.084-.941-.088-.537-.028-1.482.05-1.06-.186-2.06-.237-3.157-.08-1.795-3.525-5.81-5.588-6.337-.44-.113-.195.123-.624 0-1.462.383-.622 1.904-.953 2.849l-.001.004c-1.167 1.955-1.299 5.14-1.07 8.208h8.5z" fill="#FFC8B0"/><path d="M22.999 7.85l2.729-5.369-1.475-2S5.823-.161 7.82 26.63c0 0 2.582 15.45 1.192 21.618-1.391 6.168 1.879 8.286 1.879 8.286l6.83-.15 3.79-1.073 2.743-1.275L23 7.85z" fill="#5D2502"/><g transform="translate(24.138 .082)"><mask id="b" fill="#fff"><use xlink:href="#a"/></mask><path d="M.115.399s24.251-4.26 21.475 27.075c0 0-2.581 15.45-1.191 21.618 1.39 6.169-1.88 8.286-1.88 8.286l-6.83-.15-3.79-1.072-2.743-1.276L.116.4z" fill="#5D2502" mask="url(#b)"/></g><mask id="d" fill="#fff"><use xlink:href="#c"/></mask><path fill="#F9B8A0" mask="url(#d)" d="M21.607 50.404h9.027V33.298h-9.027z"/><path d="M38.14 49.485s-.56-2.085 3.489-3.125c0 0 4.905.516 5.586 2.895.13.457.318 2.595.888 5.726.002.007.796 2.76 1.75 3.947.182.225-.128.467-.748.706-2.072.797-8.69 2.196-11.001 2.097-.642-.027-1.04-.119-1.038-.294.006-.998.335-9.302 1.075-11.952" fill="#2BB573" mask="url(#d)"/><path d="M44.477 64.7c-.483-2.691-2.164-6.015-2.164-6.624 0-.686-.838-9.009-1.034-9.792-.198-.784-.407-1.34-2.896-2.35-3.038-1.235-6.176-1.738-7.415-2.107.065.39-.519.458-.452.852l-2.233 1.094-.69-.23-1.382.482-3.769-1.241c-.811-1.314-1.389-2.038-1.389-2.038v-.06l-.168-.014c-2.713.568-7.918 1.563-10.41 2.322 0 0-1.443 2.6-2.526 10.37-.387 2.772.16 6.144 1.02 9.336h35.508z" fill="#2CA364" mask="url(#d)"/><path d="M27.768 46.083s-.758 4.21-3.25 3.454c-2.49-.756-8.16-4.984-8.304-6.162 0 0 2.186-.944 5.164-.953 0 0 1.222 2.744 6.54 3.122l-.15.54zm.151-.539s.973 3.507 2.63 3.777c1.66.27 4.951-3.854 3.9-4.679-1.05-.825-3.806-1.138-3.806-1.138s-.029 1.608-2.724 2.04" fill="#FFF" mask="url(#d)"/><path d="M42.804 13.09l.65 12.14v3.116c0 7.099-5.775 12.854-12.9 12.854-7.124 0-13.83-6.953-13.83-14.052l.93-1.919V6.143l25.15 6.947z" fill="#FBC6B1" mask="url(#d)"/><path d="M35.876 24.944c.757-.175 1.365 4.908.96 5.714-.307.62-1.77.681-1.871-.68-.101-1.362 0-4.824.911-5.034" fill="#D88D6C" mask="url(#d)"/><path d="M24.136 13.273s-.217 10.336-8.881 8.891L12.547 11.44l6.01-7.339 8.178-1.619 5.957 2.375-8.556 8.417z" fill="#5D2502" mask="url(#d)"/><path d="M23.81 12.254l.326 1.02s6.1 5.665 14.23 3.399c5.638-1.572 6.032 7.607 6.032 7.607s1.917-11.978-3.54-15.647C35.398 4.963 27.302.777 24.893 2.05c-2.409 1.273-1.083 10.204-1.083 10.204" fill="#5D2502" mask="url(#d)"/><path d="M13.614 24.939a3.105 3.105 0 0 0 3.11 3.098 3.104 3.104 0 0 0 3.11-3.098 3.104 3.104 0 0 0-3.11-3.098 3.105 3.105 0 0 0-3.11 3.098" fill="#FFC8B0" mask="url(#d)"/><path d="M16.166 23.592a1.314 1.314 0 0 1 1.447.223c-.53.803-.59 1.377-.559 2.22a1.304 1.304 0 0 1-.888-2.443m21.198 10.26a.809.809 0 0 0-.256-.047l-.002-.004h-.065l-5.45.012a.82.82 0 0 0-.97.97c.188.908 1.157 2.628 3.48 2.628 2.81 0 3.715-2.414 3.752-2.516a.816.816 0 0 0-.489-1.043" fill="#D88D6C" mask="url(#d)"/><path d="M40.046 23.975h.046c1.291.028 2.177 1.227 2.215 1.279a.409.409 0 0 1-.092.572.412.412 0 0 1-.574-.092c-.006-.008-.696-.931-1.582-.94-.887.009-1.576.932-1.583.941a.412.412 0 0 1-.574.09.408.408 0 0 1-.091-.571c.037-.052.924-1.25 2.214-1.279h.021m-10.051 0h.046c1.291.028 2.177 1.227 2.215 1.279a.409.409 0 0 1-.092.572.412.412 0 0 1-.574-.092c-.006-.008-.696-.931-1.582-.94-.887.009-1.576.932-1.583.941a.412.412 0 0 1-.574.09.408.408 0 0 1-.091-.571c.037-.052.924-1.251 2.215-1.279h.02" fill="#161514" mask="url(#d)"/><path d="M6.874 64.7l.536-1.18c.158-.178.302-.377.424-.594l7.012-12.485c.894-1.591.392-3.566-1.12-4.41-1.514-.844-3.928-.299-4.822 1.293l-.003.004C5.386 51.463.755 63.321.111 64.474c-.031.058-.07.137-.111.226h6.874z" fill="#FFC8B0" mask="url(#d)"/><path d="M9.594 44.682s1.558-1.466 5.183-.275c0 0 2.585 2.368 1.757 4.682-.159.444-1.221 2.31-2.556 5.191-.002.006-.955 2.69-.906 4.155.009.278-.36.321-.96.205-2.004-.39-7.759-2.585-9.438-3.837-.467-.348-.713-.626-.614-.77.567-.823 5.486-7.532 7.534-9.351" fill="#2BB573" mask="url(#d)"/></g></svg>