<svg width="30" height="30" viewBox="0 0 30 30" xmlns="http://www.w3.org/2000/svg"><title>icons8-create_new</title><g fill="none"><path fill="#FFF" d="M0 4.621h24.647v24.647H0z"/><g fill="#777"><path d="M23.877 28.498H.77V5.392h15.918l.77-.77H0v24.646h24.647V11.81l-.77.77z"/><path d="M24.262 13.864a.386.386 0 0 1-.385-.385v-1.54c0-.212.173-.386.385-.386.212 0 .385.174.385.385v1.54a.386.386 0 0 1-.385.386zM15.79 4.621h1.54c.212 0 .385.174.385.385a.386.386 0 0 1-.385.386h-1.54a.386.386 0 0 1-.386-.386c0-.211.174-.385.385-.385z"/></g><path fill="#FFF" d="M10.158 15.897l1.759-1.759 3.444 3-1.972 1.973-5.046 1.815z"/><path d="M11.935 14.665l2.863 2.493-1.62 1.62-4.195 1.51 1.509-4.179 1.443-1.444zm-.036-1.053l-2.073 2.073-2.124 5.881 5.899-2.121 2.325-2.325-4.027-3.508z" fill="#777"/><path fill="#777" d="M7.702 21.566l3.472-1.248L8.953 18.1z"/><path d="M23.467 2.579l1.526-1.526a2.265 2.265 0 0 1 1.612-.668c.61 0 1.18.237 1.611.668.858.858.858 2.364 0 3.222L26.69 5.801 23.467 2.58z" fill="#E2E2E2"/><path d="M26.604.77c.506 0 .981.197 1.339.555.766.766.632 2.045 0 2.678L26.69 5.256l-2.678-2.678 1.253-1.253a1.885 1.885 0 0 1 1.34-.555zm0-.77c-.682 0-1.363.26-1.884.78l-1.798 1.798 3.768 3.767 1.797-1.798c.967-.966 1.04-2.726 0-3.767A2.65 2.65 0 0 0 26.604 0z" fill="#777"/><path d="M13.852 18.648a1.256 1.256 0 0 0-.178-.274c-.217-.253-.52-.41-.905-.467-.15-.867-.834-1.243-1.38-1.362a1.393 1.393 0 0 0-.802-1.078L22.353 3.692l3.222 3.223-11.723 11.733z" fill="#E2E2E2"/><path d="M22.353 4.238l2.678 2.678-11.13 11.137a1.757 1.757 0 0 0-.815-.471c-.224-.734-.803-1.157-1.376-1.346a1.769 1.769 0 0 0-.519-.828l11.162-11.17zm0-1.09L9.825 15.685h.015c.137 0 1.19.038 1.19 1.201 0 0 1.383.043 1.383 1.381 1.375 0 1.187 1.178 1.187 1.178l12.52-12.53-3.767-3.767z" fill="#777"/><path fill="#FFF" d="M22.411 3.636l2.007-2.006 3.222 3.223-2.007 2.006z"/><path d="M24.416 2.174l2.678 2.678-1.461 1.461-2.678-2.678 1.46-1.46zm0-1.09l-2.55 2.551 3.767 3.768 2.55-2.55-3.767-3.769z" fill="#777"/></g></svg>