<svg width="26" height="30" viewBox="0 0 26 30" xmlns="http://www.w3.org/2000/svg"><title>icons8-id_not_verified</title><g fill="none"><path d="M.994 28.125c-.347 0-.63-.298-.63-.664V2.54c0-.366.283-.664.63-.664h7.414c-.02.126-.03.25-.03.375 0 1.447 1.144 2.625 2.55 2.625 1.407 0 2.55-1.178 2.55-2.625 0-.124-.009-.249-.029-.375h7.414c.347 0 .63.298.63.664v24.92c0 .366-.283.664-.63.664H.993z" fill="#E2E2E2"/><path d="M20.863 2.25c.147 0 .266.13.266.289v24.923c0 .158-.12.288-.266.288H.993c-.146 0-.264-.13-.264-.289V2.54c0-.16.118-.289.265-.289h7.02c0 1.655 1.307 3 2.915 3 1.607 0 2.914-1.345 2.914-3h7.02zm0-.75H12.98c.082.236.134.485.134.75 0 1.243-.978 2.25-2.185 2.25-1.208 0-2.186-1.007-2.186-2.25 0-.265.052-.514.134-.75H.994C.445 1.5 0 1.965 0 2.539v24.923c0 .573.445 1.038.994 1.038h19.87c.548 0 .993-.465.993-1.039V2.54c0-.574-.445-1.039-.994-1.039z" fill="#777"/><path fill="#FFF" d="M2.186 3.75h17.486v22.5H2.186z"/><path d="M10.929.75c.803 0 1.457.673 1.457 1.5s-.654 1.5-1.457 1.5c-.804 0-1.458-.673-1.458-1.5s.654-1.5 1.458-1.5zm0-.75C9.72 0 8.743 1.007 8.743 2.25S9.72 4.5 10.929 4.5c1.207 0 2.185-1.007 2.185-2.25S12.136 0 10.93 0z" fill="#4788C7"/><path d="M7.286 5.625c-.603 0-1.093-.505-1.093-1.125V1.875h2.941l.028-.08a1.912 1.912 0 0 0-.055.455c0 1.034.818 1.875 1.822 1.875s1.821-.841 1.821-1.875c0-.157-.019-.31-.055-.455l.028.08h2.941V4.5c0 .62-.49 1.125-1.093 1.125H7.286zm3.64-5.25h.005-.005z" fill="#FFF"/><path d="M15.3 2.25V4.5a.74.74 0 0 1-.729.75H7.286a.74.74 0 0 1-.729-.75V2.25h2.186c0 1.24.98 2.25 2.186 2.25 1.205 0 2.185-1.01 2.185-2.25H15.3zM10.929 0c-.95 0-1.751.628-2.052 1.5H5.829v3c0 .829.652 1.5 1.457 1.5h7.285c.806 0 1.458-.671 1.458-1.5v-3H12.98c-.3-.872-1.1-1.5-2.05-1.5zm0 3.75c-.804 0-1.458-.673-1.458-1.5s.654-1.5 1.458-1.5c.803 0 1.457.673 1.457 1.5s-.654 1.5-1.457 1.5z" fill="#777"/><ellipse fill="#FFF" cx="10.929" cy="12" rx="2.55" ry="2.625"/><path d="M10.929 9.75c1.205 0 2.185 1.01 2.185 2.25s-.98 2.25-2.185 2.25S8.743 13.24 8.743 12s.98-2.25 2.186-2.25zm0-.75c-1.61 0-2.915 1.343-2.915 3s1.305 3 2.915 3c1.609 0 2.914-1.343 2.914-3s-1.305-3-2.914-3z" fill="#777"/><path d="M5.477 21.375c.188-2.927 2.561-5.25 5.452-5.25 2.89 0 5.263 2.323 5.451 5.25H5.477z" fill="#FFF"/><path d="M10.929 16.5c2.564 0 4.693 1.959 5.048 4.5H5.88c.355-2.541 2.484-4.5 5.049-4.5zm0-.75c-3.22 0-5.829 2.686-5.829 6h11.657c0-3.314-2.61-6-5.828-6z" fill="#777"/><ellipse fill="#FFF" cx="19.307" cy="23.25" rx="6.193" ry="6.375"/><path d="M19.307 17.25c3.214 0 5.829 2.692 5.829 6s-2.615 6-5.829 6c-3.214 0-5.828-2.692-5.828-6s2.614-6 5.828-6zm0-.75c-3.622 0-6.557 3.022-6.557 6.75S15.685 30 19.307 30c3.622 0 6.557-3.022 6.557-6.75s-2.935-6.75-6.557-6.75z" fill="#777"/><path fill="#777" d="M16.5 23.607l.451-.451 1.442 1.441L21.99 21l.451.451-4.048 4.049z"/></g></svg>