<svg width="30" height="30" viewBox="0 0 30 30" xmlns="http://www.w3.org/2000/svg"><title>icons8-rules</title><g fill="none"><path fill="#FFF" d="M2.917.417h24.167v23.398H2.917z"/><path d="M26.667.833v22.565H3.333V.832h23.334zM27.5 0h-25v24.23h25V0z" fill="#777"/><path d="M4.615 29.583c-1.757 0-4.078-.615-4.193-5.833h29.156c-.116 5.218-2.436 5.833-4.193 5.833H4.615z" fill="#E2E2E2"/><path d="M29.148 24.167c-.209 4.41-2.102 5-3.764 5H4.615c-1.662 0-3.555-.59-3.763-5h28.296zm.852-.834H0C0 28.863 2.313 30 4.615 30h20.77C27.7 30 30 28.892 30 23.333zm-7.917-15H11.25a.417.417 0 0 1 0-.833h10.833a.417.417 0 1 1 0 .833z" fill="#777"/><circle fill="#777" cx="7.917" cy="7.917" r="1"/><path d="M22.083 13.333H11.25a.417.417 0 0 1 0-.833h10.833a.417.417 0 1 1 0 .833z" fill="#777"/><circle fill="#777" cx="7.917" cy="12.917" r="1"/><path d="M22.083 18.333H11.25a.417.417 0 0 1 0-.833h10.833a.417.417 0 1 1 0 .833z" fill="#777"/><circle fill="#777" cx="7.917" cy="17.917" r="1"/></g></svg>