<svg width="40" height="34" viewBox="0 0 40 34" xmlns="http://www.w3.org/2000/svg"><title>icons8-send_mass_email</title><g fill="none" fill-rule="evenodd"><path fill="#E2E2E2" fill-rule="nonzero" d="M.513.515h31.795v21.636H.513z"/><path d="M31.795 1.03v20.606H1.025V1.03h30.77zM32.82 0H0v22.667h32.82V0z" fill="#777" fill-rule="nonzero"/><path d="M.455 3.918l13.713 7.366a4.74 4.74 0 0 0 4.482 0l13.713-7.366" stroke="#777"/><path fill="#FFF" fill-rule="nonzero" d="M4.615 4.636H36.41v21.636H4.615z"/><path d="M35.897 5.152v20.606H5.128V5.152h30.77zm1.026-1.03H4.103v22.666h32.82V4.12z" fill="#777" fill-rule="nonzero"/><path d="M4.558 8.04l13.713 7.365a4.74 4.74 0 0 0 4.482 0L36.466 8.04" stroke="#777"/><path fill="#FFF" fill-rule="nonzero" d="M35.897 18.664v7.094H20.513v1.03h16.41v-8.243z"/><path fill="#E2E2E2" fill-rule="nonzero" d="M31.282 28.333h-7.18v-5.151h7.18v-4.52l7.947 7.096-7.947 7.095z"/><path d="M31.795 19.81l6.661 5.948-6.661 5.948v-3.888h-7.18v-4.121h7.18V19.81zm-1.026-2.295v5.152h-7.18v6.181h7.18V34L40 25.758l-9.23-8.243zm-12.82 8.243h3.077a.516.516 0 0 1 0 1.03h-3.077a.516.516 0 0 1 0-1.03zM36.41 15.455c.282 0 .513.231.513.515v3.09c0 .284-.23.516-.513.516a.516.516 0 0 1-.513-.515V15.97c0-.284.231-.515.513-.515z" fill="#777" fill-rule="nonzero"/></g></svg>