<svg width="30" height="33" viewBox="0 0 30 33" xmlns="http://www.w3.org/2000/svg"><title>icons8-user</title><path d="M15 0C9.217 0 4.5 4.717 4.5 10.5c0 3.615 1.846 6.826 4.64 8.719C3.792 21.516 0 26.824 0 33h3c0-4.336 2.291-8.11 5.719-10.219A6.806 6.806 0 0 0 15 27a6.806 6.806 0 0 0 6.281-4.219C24.71 24.891 27 28.664 27 33h3c0-6.176-3.791-11.484-9.14-13.781 2.794-1.893 4.64-5.104 4.64-8.719C25.5 4.717 20.783 0 15 0zm0 3c4.16 0 7.5 3.34 7.5 7.5S19.16 18 15 18s-7.5-3.34-7.5-7.5S10.84 3 15 3zm0 18c1.23 0 2.402.176 3.516.516C17.994 22.963 16.635 24 15 24s-2.994-1.037-3.516-2.484A11.978 11.978 0 0 1 15 21z" fill="#FFF"/></svg>