<svg width="115" height="120" viewBox="0 0 115 120" xmlns="http://www.w3.org/2000/svg"><title>icon-calendar-fill</title><defs><linearGradient x1="0%" y1="0%" y2="100%" id="a"><stop stop-color="#5D9CEC" offset="0%"/><stop stop-color="#0D65D8" offset="100%"/></linearGradient></defs><path d="M25 0c-2.734 0-5 2.266-5 5v5H5c-2.9 0-5 2.1-5 5v17.5h115V15c0-2.9-2.1-5-5-5H95V5c0-2.734-2.266-5-5-5h-5c-2.734 0-5 2.266-5 5v5H35V5c0-2.734-2.266-5-5-5h-5zm0 5h5v15h-5V5zm60 0h5v15h-5V5zM0 37.5V115c0 2.9 2.1 5 5 5h105c2.9 0 5-2.1 5-5V37.5H0zm25 15h12.5V65H25V52.5zm17.5 0H55V65H42.5V52.5zm17.5 0h12.5V65H60V52.5zm17.5 0H90V65H77.5V52.5zM25 70h12.5v12.5H25V70zm17.5 0H55v12.5H42.5V70zM60 70h12.5v12.5H60V70zm17.5 0H90v12.5H77.5V70zM25 87.5h12.5V100H25V87.5zm17.5 0H55V100H42.5V87.5zm17.5 0h12.5V100H60V87.5zm17.5 0H90V100H77.5V87.5z" fill="url(#a)"/></svg>