<svg width="120" height="113" viewBox="0 0 120 113" xmlns="http://www.w3.org/2000/svg"><title>icons8-advertising</title><g fill="none" fill-rule="evenodd"><path d="M0-3h120v120H0z"/><g fill="#90CAF9" fill-rule="nonzero"><path d="M41.23 83.19h-7.384V70.864h12.308l1.23 4.621c.924 4.006-2.153 7.703-6.153 7.703z"/><path d="M101.538 92.432S65.231 70.865 46.154 70.865V27.73c17.846 0 55.384-21.568 55.384-21.568v86.27z"/></g><g transform="translate(0 33.892)" fill="#283593" fill-rule="nonzero"><ellipse cx="15.385" cy="15.405" rx="15.385" ry="15.405"/><path d="M110.77 6.162h-9.232V24.65h9.231c5.231 0 9.231-4.006 9.231-9.244 0-5.237-4-9.243-9.23-9.243zm-65.847 68.4c-2.77 1.849-7.692 3.697-14.154 4.314-1.846.308-3.692-.925-4.307-3.081L12.923 33.584S40 14.48 40 36.973c0 16.946 4.615 25.881 6.77 29.27 1.538 2.157 1.538 4.93 0 7.087-.616.616-1.232.924-1.847 1.232z"/></g><path d="M15.385 70.865h30.769V27.73h-30.77c-3.384 0-6.153 2.773-6.153 6.162v30.81c0 3.39 2.769 6.163 6.154 6.163z" fill="#3F51B5" fill-rule="nonzero"/><path d="M104.615 98.595c-3.384 0-6.153-2.773-6.153-6.163V6.162c0-3.389 2.769-6.162 6.153-6.162 3.385 0 6.154 2.773 6.154 6.162v86.27c0 3.39-2.769 6.163-6.154 6.163z" fill="#42A5F5" fill-rule="nonzero"/></g></svg>