<svg width="40" height="40" viewBox="0 0 40 40" xmlns="http://www.w3.org/2000/svg"><title>icons8-plus</title><g fill="none"><path d="M20 39.474C9.262 39.474.526 30.738.526 20S9.262.526 20 .526 39.474 9.262 39.474 20 30.738 39.474 20 39.474z" fill="#E2E2E2"/><path d="M20 1.053c10.447 0 18.947 8.5 18.947 18.947S30.447 38.947 20 38.947 1.053 30.447 1.053 20 9.553 1.053 20 1.053zM20 0C8.955 0 0 8.955 0 20s8.955 20 20 20 20-8.955 20-20S31.045 0 20 0z" fill="#777"/><path fill="#FFF" d="M30.526 17.895h-8.42V9.474h-4.211v8.42H9.474v4.211h8.42v8.421h4.211v-8.42h8.421z"/></g></svg>