<svg width="104" height="120" viewBox="0 0 104 120" xmlns="http://www.w3.org/2000/svg"><title>icons8-address_book_2_filled</title><defs><linearGradient x1=".55%" y1=".55%" x2="97.3%" y2="97.3%" id="a"><stop stop-color="#48CFAD" offset="0%"/><stop stop-color="#19A784" offset="100%"/></linearGradient></defs><path d="M15.19 0c-4.735 0-8.595 3.85-8.595 8.571v14.286H3.73a2.883 2.883 0 0 0-2.518 1.418 2.877 2.877 0 0 0 0 2.879 2.883 2.883 0 0 0 2.518 1.417h11.46a2.872 2.872 0 0 0 2.472-1.35c.224.402.392.848.392 1.35a2.867 2.867 0 0 1-2.865 2.858H6.595V40H3.73a2.883 2.883 0 0 0-2.518 1.417 2.877 2.877 0 0 0 0 2.88 2.883 2.883 0 0 0 2.518 1.417h11.46a2.872 2.872 0 0 0 2.472-1.35c.224.402.392.848.392 1.35a2.867 2.867 0 0 1-2.865 2.857H6.595v8.572H3.73a2.883 2.883 0 0 0-2.518 1.417 2.877 2.877 0 0 0 0 2.88 2.883 2.883 0 0 0 2.518 1.417h11.46a2.872 2.872 0 0 0 2.472-1.35c.224.401.392.848.392 1.35a2.86 2.86 0 0 1-2.865 2.857H6.595v8.572H3.73a2.883 2.883 0 0 0-2.518 1.417 2.877 2.877 0 0 0 0 2.88A2.883 2.883 0 0 0 3.73 80h11.46a2.872 2.872 0 0 0 2.472-1.35c.224.401.392.848.392 1.35a2.86 2.86 0 0 1-2.865 2.857H6.595v8.572H3.73a2.883 2.883 0 0 0-2.518 1.417 2.877 2.877 0 0 0 0 2.88 2.883 2.883 0 0 0 2.518 1.417h11.46a2.872 2.872 0 0 0 2.472-1.35c.224.401.392.848.392 1.35A2.86 2.86 0 0 1 15.19 100H6.595v11.429c0 4.72 3.86 8.571 8.594 8.571h80.216c4.734 0 8.595-3.85 8.595-8.571V8.57C104 3.851 100.14 0 95.405 0H15.19zm44.405 31.429l1.432 2.857c9.367 0 9.78 12.165 7.296 15.178.672.19 1.31 1.206 1.108 2.835-.38 3.025-1.678 3.795-2.506 3.862-.314 2.823-3.033 6.696-3.033 6.696v5.77c2.45 6.451 19.293 4.643 20.054 17.087H29.514c.76-12.444 17.614-10.636 20.054-17.087 0-2.678.134-5.77.134-5.77h-.134c-1.052-.524-2.72-3.873-3.033-6.696-.828-.067-2.126-.837-2.507-3.862-.201-1.63.616-2.545 1.108-2.835-3.894-8.281 1.007-18.035 14.459-18.035z" fill="url(#a)"/></svg>