<svg width="100" height="70" viewBox="0 0 100 70" xmlns="http://www.w3.org/2000/svg"><title>import</title><path d="M82 50h9a1 1 0 0 1 0 2h-9v9a1 1 0 1 1-2 0v-9h-9a1 1 0 0 1 0-2h9v-9a1 1 0 1 1 2 0v9zm7-41H2v48a2 2 0 0 0 2 2h56a1 1 0 1 1 0 2H4a4 4 0 0 1-4-4V4a4 4 0 0 1 4-4h83a4 4 0 0 1 4 4v26a1 1 0 1 1-2 0V9zm0-2V4a2 2 0 0 0-2-2H4a2 2 0 0 0-2 2v3h87zM10 17h6v2h-6v-2zm11 0h60v2H21v-2zm-11 8h6v2h-6v-2zm11 0h60v2H21v-2zm-11 8h6v2h-6v-2zm11 0h45v2H21v-2zm-11 8h6v2h-6v-2zm11 0h38v2H21v-2zm-11 8h6v2h-6v-2zm11 0h35v2H21v-2zm60-17c10.473 0 19 8.527 19 19s-8.527 19-19 19-19-8.527-19-19 8.527-19 19-19zm0 2c-9.369 0-17 7.631-17 17s7.631 17 17 17 17-7.631 17-17-7.631-17-17-17z" fill="#A9B8C5"/></svg>