<svg width="90" height="120" viewBox="0 0 90 120" xmlns="http://www.w3.org/2000/svg"><title>icon/blankslate/invoice</title><g fill="none" fill-rule="evenodd"><path d="M2 9v99h76V9H2zM1 7h78a1 1 0 0 1 1 1v101a1 1 0 0 1-1 1H1a1 1 0 0 1-1-1V8a1 1 0 0 1 1-1z" fill="#777" fill-rule="nonzero"/><path fill-opacity=".25" fill="#E2E2E2" d="M2 9h38v99H2z"/><path fill="#FFF" d="M7 14h82v105H7z"/><path fill-opacity=".25" fill="#E2E2E2" d="M8 15h32v103H8z"/><path d="M8 15v103h80V15H8zm-1-2h82a1 1 0 0 1 1 1v105a1 1 0 0 1-1 1H7a1 1 0 0 1-1-1V14a1 1 0 0 1 1-1z" fill="#777" fill-rule="nonzero"/><path d="M18 58v37h60V58H18zm-1-2h62a1 1 0 0 1 1 1v39a1 1 0 0 1-1 1H17a1 1 0 0 1-1-1V57a1 1 0 0 1 1-1zm33 49a1 1 0 1 1 0-2h29a1 1 0 1 1 0 2H50z" fill="#777" fill-rule="nonzero"/><path d="M64 57a1 1 0 0 1 2 0v38a1 1 0 0 1-2 0V57zm-14 0a1 1 0 0 1 2 0v38a1 1 0 0 1-2 0V57z" fill="#777" fill-rule="nonzero"/><path d="M21 22a1 1 0 0 1 2 0v4c0 4.186 1.088 6 4 6s4-1.814 4-6V8c0-4.186-1.088-6-4-6s-4 1.814-4 6a1 1 0 0 1-2 0c0-5.147 1.712-8 6-8s6 2.853 6 8v18c0 5.147-1.712 8-6 8s-6-2.853-6-8v-4z" fill="#777"/></g></svg>