<svg width="70" height="70" viewBox="0 0 70 70" xmlns="http://www.w3.org/2000/svg"><title>job-title</title><path d="M41 34h27V23.424C68 20.49 65.671 18 62.791 18H7.21C4.406 18 2 20.409 2 23.424V34h27v-.333C29 32.122 30.085 31 31.613 31h6.774C39.915 31 41 32.122 41 33.667V34zm0 2v4.333C41 41.878 39.915 43 38.387 43h-6.774C30.085 43 29 41.878 29 40.333V36H2v26.576C2 65.51 4.329 68 7.209 68H62.79c2.804 0 5.21-2.409 5.21-5.424V36H41zm29 26.576C70 66.696 66.7 70 62.791 70H7.21C3.193 70 0 66.586 0 62.576V23.424C0 19.304 3.3 16 7.209 16H62.79c4.017 0 7.21 3.414 7.21 7.424v39.152zM22 11a1 1 0 1 1-2 0V9.333C20 4.18 24.117 0 29.089 0H40.91C45.883 0 50 4.18 50 9.333V11a1 1 0 1 1-2 0V9.333C48 5.277 44.772 2 40.911 2H29.09C25.229 2 22 5.277 22 9.333V11zm17 29.333v-6.666c0-.455-.205-.667-.613-.667h-6.774c-.408 0-.613.212-.613.667v6.666c0 .455.205.667.613.667h6.774c.408 0 .613-.212.613-.667z" fill="#A9B8C5"/></svg>