<svg width="186" height="40" viewBox="0 0 186 40" xmlns="http://www.w3.org/2000/svg"><title>logo-sleekr-hr-sm</title><g fill="none" fill-rule="evenodd"><path d="M43.74 25.81c1.484 1.64 3.07 2.462 4.755 2.462a4.51 4.51 0 0 0 1.039-.114 2.38 2.38 0 0 0 .828-.351c.23-.16.414-.366.55-.616.135-.25.203-.55.203-.9 0-.251-.056-.476-.166-.677-.11-.2-.255-.375-.437-.525a3.363 3.363 0 0 0-.601-.397 5.49 5.49 0 0 0-.663-.294c-.412-.17-.82-.322-1.227-.457a17.9 17.9 0 0 1-1.226-.458c-.23-.08-.51-.183-.835-.308a9.427 9.427 0 0 1-1.017-.465 8.39 8.39 0 0 1-1.038-.653c-.341-.25-.65-.55-.926-.901a4.542 4.542 0 0 1-.67-1.194c-.17-.445-.255-.957-.255-1.538 0-.72.175-1.352.526-1.892a4.5 4.5 0 0 1 1.4-1.358 6.802 6.802 0 0 1 1.98-.826 9.304 9.304 0 0 1 2.28-.277c1.244 0 2.375.144 3.394.434a7.822 7.822 0 0 1 2.792 1.457l-1.776 2.732c-.31-.31-.615-.588-.911-.833a5.447 5.447 0 0 0-.94-.63 4.465 4.465 0 0 0-1.084-.399 6.032 6.032 0 0 0-1.34-.135c-.421 0-.783.05-1.083.15-.302.1-.55.236-.745.406-.196.17-.34.365-.43.585-.09.22-.135.45-.135.69 0 .271.065.504.196.699.13.195.298.365.504.51.206.145.439.27.7.375.26.106.526.203.797.293.421.15.846.298 1.273.443.426.146.85.293 1.271.443.21.08.466.175.768.285.301.11.612.25.933.42.32.171.64.378.955.624a4.346 4.346 0 0 1 1.461 2.086c.155.456.233.984.233 1.584 0 .75-.186 1.413-.557 1.99a4.73 4.73 0 0 1-1.467 1.44 7.218 7.218 0 0 1-2.07.878c-.772.2-1.565.301-2.379.301-.722 0-1.404-.04-2.046-.12a9.617 9.617 0 0 1-1.828-.406 7.386 7.386 0 0 1-3.123-1.996l2.137-2.567zM56.843 7.014h3.913v19.607c0 .51.083.87.249 1.08.165.21.393.315.685.315.33 0 .612-.044.843-.135l.797-.315.662 2.012a7.747 7.747 0 0 1-2.762 1.156 5.19 5.19 0 0 1-1.031.105c-.431 0-.848-.046-1.249-.136a2.531 2.531 0 0 1-1.069-.518c-.31-.254-.562-.607-.752-1.058-.19-.45-.286-1.03-.286-1.74V7.013zm14.834 9.984c-.632 0-1.154.11-1.565.33-.412.22-.737.51-.979.87a3.59 3.59 0 0 0-.511 1.231c-.1.461-.151.937-.151 1.427h6.217c0-.421-.03-.858-.09-1.314a3.46 3.46 0 0 0-.407-1.246 2.576 2.576 0 0 0-.911-.93c-.396-.246-.93-.368-1.603-.368zm7.586 10.853c-.623.66-1.222 1.191-1.8 1.591a7.879 7.879 0 0 1-1.722.924 7.47 7.47 0 0 1-1.745.427c-.593.07-1.21.106-1.852.106-1.385 0-2.572-.24-3.56-.721-.988-.48-1.796-1.12-2.423-1.922a7.933 7.933 0 0 1-1.385-2.762 11.793 11.793 0 0 1-.443-3.243c0-1.08.152-2.113.459-3.099a7.47 7.47 0 0 1 1.398-2.605c.628-.75 1.416-1.35 2.364-1.801.948-.45 2.065-.675 3.349-.675 1.143 0 2.147.154 3.01.465.863.31 1.583.755 2.16 1.335a5.581 5.581 0 0 1 1.302 2.11c.29.826.436 1.749.436 2.769 0 .391-.012.794-.037 1.209a11.58 11.58 0 0 1-.158 1.299h-10.16c0 .47.085.986.256 1.546.17.56.419 1.088.745 1.583.326.496.73.91 1.212 1.239.481.33 1.033.496 1.655.496a7.53 7.53 0 0 0 1.423-.12c.406-.08.782-.211 1.129-.39.346-.181.677-.419.993-.714.316-.295.655-.662 1.015-1.103l2.379 2.056zm9.28-10.853c-.632 0-1.154.11-1.565.33-.411.22-.737.51-.978.87a3.552 3.552 0 0 0-.512 1.231c-.1.461-.15.937-.15 1.427h6.216c0-.421-.03-.858-.09-1.314a3.447 3.447 0 0 0-.407-1.246 2.569 2.569 0 0 0-.91-.93c-.397-.246-.932-.368-1.604-.368zM96.13 27.85c-.623.66-1.221 1.191-1.799 1.591a7.907 7.907 0 0 1-1.723.924 7.47 7.47 0 0 1-1.745.427c-.593.07-1.21.106-1.852.106-1.385 0-2.571-.24-3.56-.721-.988-.48-1.796-1.12-2.423-1.922a7.933 7.933 0 0 1-1.384-2.762 11.793 11.793 0 0 1-.444-3.243c0-1.08.153-2.113.458-3.099a7.46 7.46 0 0 1 1.4-2.605c.628-.75 1.415-1.35 2.363-1.801.948-.45 2.065-.675 3.349-.675 1.143 0 2.147.154 3.01.465.863.31 1.583.755 2.16 1.335a5.581 5.581 0 0 1 1.302 2.11c.29.826.436 1.749.436 2.769 0 .391-.012.794-.037 1.209a11.15 11.15 0 0 1-.159 1.299H85.323c0 .47.085.986.255 1.546.17.56.419 1.088.745 1.583.327.496.73.91 1.212 1.239a2.86 2.86 0 0 0 1.656.496 7.52 7.52 0 0 0 1.422-.12c.406-.08.783-.211 1.129-.39a4.53 4.53 0 0 0 .993-.714c.317-.295.655-.662 1.016-1.103l2.378 2.056zm6.028-7.535l5.314-5.99h4.891l-7.39 7.236 7.872 8.977h-4.696l-5.99-7.01v7.01h-3.914V6.97h3.913zm15.497-5.99a28.56 28.56 0 0 1 .451 3.243c.192-.44.467-.871.828-1.291a7.3 7.3 0 0 1 1.205-1.119c.44-.325.905-.587 1.391-.787.488-.201.95-.3 1.393-.3.551 0 .964.035 1.234.104.27.07.487.14.647.21l-.843 3.528a3.952 3.952 0 0 0-.895-.307 4.177 4.177 0 0 0-.82-.083c-.934 0-1.734.22-2.401.66a5.18 5.18 0 0 0-1.633 1.742l.03 10.613H114.3v-13.48c0-.17-.003-.386-.008-.646l-.015-.795a17.277 17.277 0 0 0-.03-.759 5.6 5.6 0 0 0-.053-.533h3.462zm19.932 8.55a2.746 2.746 0 0 1-2.75 2.744 2.747 2.747 0 0 1-2.75-2.744 2.747 2.747 0 0 1 2.75-2.743c1.52 0 2.75 1.229 2.75 2.743" fill="#00A264"/><path fill="#212121" d="M160.113 30.884v-8.709h-9.787v8.709h-4.412V10.213h4.412v8.12h9.787v-8.12h4.444v20.67zm20.985-14.039c0-1.705-1.337-2.758-3.076-2.758h-4.66v5.578h4.66c1.74 0 3.076-1.053 3.076-2.82zm-.435 14.038l-4.07-7.345h-3.232v7.345h-4.411v-20.67h9.693c4.319 0 6.992 2.82 6.992 6.663 0 3.626-2.332 5.61-4.568 6.136l4.691 7.871h-5.095z"/><path d="M31.23.028H3.571C.222.028.114 3.06.113 3.438a.86.86 0 0 0 .001.039V25.89c0 9.389 6.527 10.751 16.657 13.662.172.049.63.068.63.068s.458-.02.63-.068c10.13-2.91 16.656-4.273 16.656-13.662V3.437c0-.378-.108-3.409-3.457-3.409" fill="#009F61"/><path d="M11.157 23.713c2.035 2.25 4.209 3.374 6.519 3.374a6.29 6.29 0 0 0 1.423-.154 3.28 3.28 0 0 0 1.134-.483c.316-.22.568-.501.753-.845.186-.342.279-.754.279-1.233 0-.343-.076-.651-.227-.927a2.509 2.509 0 0 0-.599-.72 4.681 4.681 0 0 0-.825-.545 7.44 7.44 0 0 0-.907-.4 24.933 24.933 0 0 0-1.681-.628 24.701 24.701 0 0 1-1.681-.628 38.66 38.66 0 0 1-1.145-.421c-.447-.172-.91-.385-1.393-.638a11.409 11.409 0 0 1-1.423-.895 6.535 6.535 0 0 1-1.269-1.235 6.182 6.182 0 0 1-.917-1.636c-.234-.61-.35-1.312-.35-2.109 0-.987.24-1.85.721-2.592a6.152 6.152 0 0 1 1.918-1.862A9.355 9.355 0 0 1 14.2 8.005a12.772 12.772 0 0 1 3.125-.381c1.705 0 3.255.2 4.651.597a10.719 10.719 0 0 1 3.827 1.995l-2.434 3.745a18.822 18.822 0 0 0-1.248-1.143 7.62 7.62 0 0 0-1.29-.863 6.127 6.127 0 0 0-1.485-.545 8.219 8.219 0 0 0-1.836-.185c-.577 0-1.072.068-1.484.205a2.95 2.95 0 0 0-1.021.556c-.269.233-.464.5-.589.802a2.484 2.484 0 0 0-.185.946c0 .37.09.69.268.957.179.267.409.501.69.7.283.199.602.37.96.514.357.144.722.278 1.093.401.578.206 1.159.409 1.743.608.585.198 1.166.4 1.743.607.29.11.64.239 1.053.39.412.152.839.343 1.278.576.44.234.877.518 1.31.854.433.336.822.74 1.166 1.214.343.472.622 1.021.835 1.646.214.624.32 1.348.32 2.17 0 1.029-.254 1.938-.763 2.726a6.487 6.487 0 0 1-2.012 1.975c-.832.529-1.777.93-2.836 1.204a12.962 12.962 0 0 1-3.259.411c-.99 0-1.926-.055-2.805-.164-.88-.11-1.716-.295-2.507-.556a10.132 10.132 0 0 1-4.28-2.736l2.93-3.518z" fill="#FFF"/></g></svg>