<svg width="100" height="70" viewBox="0 0 100 70" xmlns="http://www.w3.org/2000/svg"><title>manual</title><path d="M82 50h9a1 1 0 1 1 0 2h-9v9a1 1 0 1 1-2 0v-9h-9a1 1 0 1 1 0-2h9v-9a1 1 0 1 1 2 0v9zM34.642 31.69L2 54.52V57a2 2 0 0 0 2 2h56a1 1 0 1 1 0 2H4a4 4 0 0 1-4-4V4a4 4 0 0 1 4-4h83a4 4 0 0 1 4 4v26a1 1 0 1 1-2 0V8.846L55.814 30.489l8.082 5.273a1 1 0 1 1-1.092 1.675l-8.82-5.754-3.786 2.469a11 11 0 0 1-12.303-.192l-3.253-2.27zm-1.747-1.218L2 8.917V52.08l30.895-21.608zM2 6.478L39.04 32.32a9 9 0 0 0 10.066.158L89 6.458V4a2 2 0 0 0-2-2H4a2 2 0 0 0-2 2v2.478zM81 32c10.473 0 19 8.527 19 19s-8.527 19-19 19-19-8.527-19-19 8.527-19 19-19zm0 2c-9.369 0-17 7.631-17 17s7.631 17 17 17 17-7.631 17-17-7.631-17-17-17z" fill="#A9B8C5"/></svg>