<svg width="48" height="70" viewBox="0 0 48 70" xmlns="http://www.w3.org/2000/svg"><title>mesin-absensi</title><path d="M35.25 26H37c1.407 0 2 1.185 2 3s-.593 3-2 3H11c-1.293 0-2-1.414-2-3s.707-3 2-3h1.313l.437-2H7.771a3 3 0 0 0-2.544 1.41l-2.771 4.434A3 3 0 0 0 2 31.434V65a3 3 0 0 0 3 3h38a3 3 0 0 0 3-3V31.434a3 3 0 0 0-.456-1.59l-2.771-4.434A3 3 0 0 0 40.229 24h-4.562l-.417 2zm-.417 2l-.416 2h2.462c.072-.186.121-.524.121-1s-.049-.814-.121-1h-2.046zm-23.395 2l.437-2h-.677c.001.006-.003.017-.01.033-.114.226-.188.577-.188.967s.074.741.187.967c.008.016.012.027.011.033h.24zm13.27 20.707A.997.997 0 0 1 24 51h-6a1 1 0 1 1 0-2h5v-8a1 1 0 1 1 2 0v9a.997.997 0 0 1-.293.707zM13.187 22L18 0l15.088 2.829a3 3 0 0 1 1.568.827l3.198 3.198a3 3 0 0 1 .815 2.733L36.083 22h4.146a5 5 0 0 1 4.24 2.35l2.771 4.434a5 5 0 0 1 .76 2.65V65a5 5 0 0 1-5 5H5a5 5 0 0 1-5-5V31.434a5 5 0 0 1 .76-2.65l2.771-4.434A5 5 0 0 1 7.771 22h5.417zm19.186 8L36.71 9.179a1 1 0 0 0-.271-.911L33.242 5.07a1 1 0 0 0-.523-.275L19.54 2.323 13.485 30h18.889zM24 65c-8.284 0-15-6.716-15-15 0-8.284 6.716-15 15-15 8.284 0 15 6.716 15 15 0 8.284-6.716 15-15 15zm0-2c7.18 0 13-5.82 13-13s-5.82-13-13-13-13 5.82-13 13 5.82 13 13 13zM20.821 7.984a1 1 0 1 1 .358-1.968l11 2a1 1 0 1 1-.358 1.968l-11-2zm-1 5a1 1 0 1 1 .358-1.968l11 2a1 1 0 1 1-.358 1.968l-11-2z" fill="#A9B8C5"/></svg>