<svg width="112" height="120" viewBox="0 0 112 120" xmlns="http://www.w3.org/2000/svg"><title>icon/blankslate/organization</title><g fill="none" fill-rule="evenodd"><path fill="#FFF" d="M1 10l67-9v118H1z"/><path d="M2 10.875V118h65V2.143L2 10.875zM.867 9.009l67-9A1 1 0 0 1 69 1v118a1 1 0 0 1-1 1H1a1 1 0 0 1-1-1V10a1 1 0 0 1 .867-.991z" fill="#777" fill-rule="nonzero"/><path d="M28 94v24h14V94H28zm-1-2h16a1 1 0 0 1 1 1v26a1 1 0 0 1-1 1H27a1 1 0 0 1-1-1V93a1 1 0 0 1 1-1zm1-30v14h14V62H28zm-1-2h16a1 1 0 0 1 1 1v16a1 1 0 0 1-1 1H27a1 1 0 0 1-1-1V61a1 1 0 0 1 1-1zm1-30v14h14V30H28zm-1-2h16a1 1 0 0 1 1 1v16a1 1 0 0 1-1 1H27a1 1 0 0 1-1-1V29a1 1 0 0 1 1-1z" fill="#777" fill-rule="nonzero"/><path fill="#FFF" d="M68 41l43 9v69H68z"/><path fill-opacity=".4" fill="#E2E2E2" d="M68 41l14 3v75H68z"/><path d="M69 42.231V118h41V50.812l-41-8.581zm-.795-2.21l43 9A1 1 0 0 1 112 50v69a1 1 0 0 1-1 1H68a1 1 0 0 1-1-1V41a1 1 0 0 1 1.205-.979z" fill="#777" fill-rule="nonzero"/><path d="M91 119a1 1 0 1 1-2 0v-16a1 1 0 1 1 2 0v16zm0-34a1 1 0 0 1-2 0v-6a1 1 0 0 1 2 0v6zm0-16a1 1 0 0 1-2 0v-6a1 1 0 0 1 2 0v6z" fill="#777" fill-rule="nonzero"/></g></svg>