<svg width="120" height="120" viewBox="0 0 120 120" xmlns="http://www.w3.org/2000/svg"><title>icon/blankslate/product</title><g fill="none" fill-rule="evenodd"><path fill-opacity=".4" fill="#E2E2E2" d="M2 2h31v116H2z"/><path d="M59 61H39.198c.546 1.223.802 2.505.802 4 0 5.552-4.448 10-10 10s-10-4.448-10-10c0-1.495.256-2.777.802-4H2v57h57V97.5a1 1 0 0 1 1.554-.833C61.948 97.594 63.264 98 65 98c4.448 0 8-3.552 8-8s-3.552-8-8-8c-1.738 0-3.055.405-4.445 1.332A1 1 0 0 1 59 82.5V61zm2 58a1 1 0 0 1-1 1H1a1 1 0 0 1-1-1V60a1 1 0 0 1 1-1h21.5a1 1 0 0 1 .832 1.555C22.405 61.945 22 63.262 22 65c0 4.448 3.552 8 8 8s8-3.552 8-8c0-1.738-.405-3.055-1.332-4.445A1 1 0 0 1 37.5 59H60a1 1 0 0 1 1 1v20.802c1.223-.546 2.505-.802 4-.802 5.552 0 10 4.448 10 10s-4.448 10-10 10c-1.494 0-2.776-.257-4-.803V119z" fill="#979797" fill-rule="nonzero"/><path d="M118 118V60a1 1 0 1 1 2 0v59a1 1 0 0 1-1 1H60a1 1 0 0 1-1-1V97.5a1 1 0 0 1 1.555-.832C61.945 97.595 63.262 98 65 98c4.448 0 8-3.552 8-8s-3.552-8-8-8c-1.738 0-3.055.405-4.445 1.332A1 1 0 0 1 59 82.5V60a1 1 0 1 1 2 0v20.802c1.223-.546 2.505-.802 4-.802 5.552 0 10 4.448 10 10s-4.448 10-10 10c-1.495 0-2.777-.256-4-.802V118h57z" fill="#979797" fill-rule="nonzero"/><path d="M22.5 59a1 1 0 0 1 .833 1.554C22.406 61.948 22 63.264 22 65c0 4.448 3.552 8 8 8s8-3.552 8-8c0-1.738-.405-3.055-1.332-4.445A1 1 0 0 1 37.5 59H60a1 1 0 0 1 0 2H39.198c.546 1.223.802 2.505.802 4 0 5.552-4.448 10-10 10s-10-4.448-10-10c0-1.494.257-2.776.803-4H1a1 1 0 0 1-1-1V1a1 1 0 0 1 1-1h59a1 1 0 1 1 0 2H2v57h20.5z" fill="#979797" fill-rule="nonzero"/><path d="M61 60a1 1 0 1 1-2 0v-4a1 1 0 1 1 2 0v4zm0-8a1 1 0 1 1-2 0v-4a1 1 0 1 1 2 0v4zm0-8a1 1 0 1 1-2 0v-4a1 1 0 1 1 2 0v4zm-2.725-6.67a1 1 0 1 1 .839 1.816c-1.236.572-2.538.847-4.06.854-.149 0-.254-.001-.364-.005a1 1 0 0 1 .06-1.999c.088.003.173.004.298.004 1.24-.006 2.257-.221 3.227-.67zm-6.976-.223a1 1 0 1 1-.92 1.776 9.956 9.956 0 0 1-3.392-2.875 1 1 0 0 1 1.601-1.198 7.956 7.956 0 0 0 2.711 2.297zm-4.141-5.504a1 1 0 0 1-1.962.393 10.174 10.174 0 0 1 .1-4.44 1 1 0 0 1 1.942.482 8.187 8.187 0 0 0-.08 3.565zm1.68-6.73a1 1 0 1 1-1.538-1.277 9.952 9.952 0 0 1 3.534-2.7 1 1 0 1 1 .828 1.82 7.952 7.952 0 0 0-2.824 2.158zm6.307-2.872a1 1 0 1 1 .027-2c1.628.022 3.008.359 4.335 1.047a1 1 0 1 1-.92 1.775c-1.047-.542-2.121-.804-3.442-.822zM61 19.562a1 1 0 1 1-2 0v-4a1 1 0 1 1 2 0v4zm0-8a1 1 0 1 1-2 0v-4a1 1 0 1 1 2 0v4zm0-8a1 1 0 1 1-2 0V1a1 1 0 0 1 1-1h.438A1 1 0 0 1 61 1.827v1.735zM64.438 2a1 1 0 1 1 0-2h4a1 1 0 0 1 0 2h-4zm8 0a1 1 0 1 1 0-2h4a1 1 0 0 1 0 2h-4zm8 0a1 1 0 1 1 0-2h4a1 1 0 0 1 0 2h-4zm8 0a1 1 0 1 1 0-2h4a1 1 0 0 1 0 2h-4zm8 0a1 1 0 1 1 0-2h4a1 1 0 0 1 0 2h-4zm8 0a1 1 0 1 1 0-2h4a1 1 0 0 1 0 2h-4zm8 0a1 1 0 1 1 0-2h3a1 1 0 0 1 0 2h-3zM118 1.438a1 1 0 1 1 2 0v3a1 1 0 0 1-2 0v-3zm0 7a1 1 0 1 1 2 0v4a1 1 0 0 1-2 0v-4zm0 8a1 1 0 1 1 2 0v4a1 1 0 0 1-2 0v-4zm0 8a1 1 0 1 1 2 0v4a1 1 0 0 1-2 0v-4zm0 8a1 1 0 1 1 2 0v4a1 1 0 0 1-2 0v-4zm0 8a1 1 0 1 1 2 0v4a1 1 0 0 1-2 0v-4zm0 8a1 1 0 1 1 2 0v4a1 1 0 0 1-2 0v-4zm0 8a1 1 0 0 1 2 0V60a1 1 0 0 1-1 1h-.438a1 1 0 0 1-.562-1.827v-2.735zM114.562 59a1 1 0 1 1 0 2h-3a1 1 0 0 1 0-2h3zm-7 0a1 1 0 1 1 0 2h-4a1 1 0 0 1 0-2h4zm-8 0a1 1 0 1 1 0 2H97.5a1 1 0 0 1-.832-1.555 8.24 8.24 0 0 0 .815-1.525 1 1 0 0 1 1.858.74 9.154 9.154 0 0 1-.143.34h.364zm.407-4.795a1 1 0 1 1-1.994.155 7.976 7.976 0 0 0-1.052-3.396 1 1 0 0 1 1.73-1.004 9.976 9.976 0 0 1 1.316 4.245zM95.6 46.697a1 1 0 1 1-1.117 1.66 7.951 7.951 0 0 0-3.317-1.274 1 1 0 1 1 .284-1.98 9.964 9.964 0 0 1 4.15 1.594zm-8.517-1.27a1 1 0 0 1 .576 1.915 7.94 7.94 0 0 0-3.086 1.76 1 1 0 1 1-1.354-1.473 9.94 9.94 0 0 1 3.864-2.202zm-6.417 5.955a1 1 0 1 1 1.867.718A8.064 8.064 0 0 0 82 55c0 .186.005.366.014.542a1 1 0 0 1-1.997.107A12.152 12.152 0 0 1 80 55c0-1.254.228-2.476.666-3.618zm.986 7.202a1 1 0 0 1 1.367.361c.093.159.192.318.3.48a1 1 0 0 1-.827 1.553L79.131 61a1 1 0 1 1-.013-2l2.15-.014a.995.995 0 0 1 .384-.402zM75.124 59a1 1 0 1 1 0 2h-4a1 1 0 0 1 0-2h4zm-8 0a1 1 0 1 1 0 2h-4a1 1 0 1 1 0-2h4z" fill="#979797" fill-rule="nonzero"/></g></svg>