<svg width="181" height="40" viewBox="0 0 181 40" xmlns="http://www.w3.org/2000/svg"><title>logo/sleekr</title><g fill="none" fill-rule="evenodd"><path d="M35.728 25.679V2.163C35.704.118 31.439.141 31.439.141L18.058.001V0h-.049L4.628.141S.363.118.339 2.163V25.68s-.188 6.255 3.935 8.818c4.109 2.554 11.38 4.868 11.38 4.868s1.624.54 2.355.629V40l.025-.003.024.003v-.006c.731-.09 2.354-.629 2.354-.629s7.272-2.314 11.381-4.868c4.123-2.563 3.935-8.818 3.935-8.818z" fill="#00A264"/><path d="M11.604 23.937c2.077 2.297 4.294 3.445 6.65 3.445a6.37 6.37 0 0 0 1.453-.158 3.36 3.36 0 0 0 1.157-.493c.323-.224.579-.512.768-.861.19-.35.284-.77.284-1.26 0-.35-.077-.666-.231-.946a2.552 2.552 0 0 0-.61-.735 4.749 4.749 0 0 0-.843-.557 7.716 7.716 0 0 0-.925-.409 25.554 25.554 0 0 0-1.715-.64 25.81 25.81 0 0 1-1.716-.64 38.702 38.702 0 0 1-1.167-.432 13.11 13.11 0 0 1-1.421-.651 11.542 11.542 0 0 1-1.452-.914 6.637 6.637 0 0 1-1.295-1.26 6.338 6.338 0 0 1-.936-1.67c-.238-.622-.358-1.34-.358-2.152 0-1.009.246-1.89.737-2.647a6.277 6.277 0 0 1 1.957-1.9A9.54 9.54 0 0 1 14.71 7.9a13.052 13.052 0 0 1 3.188-.388c1.74 0 3.321.203 4.745.609a10.94 10.94 0 0 1 3.904 2.037l-2.483 3.823c-.435-.434-.86-.823-1.273-1.166a7.722 7.722 0 0 0-1.316-.882 6.212 6.212 0 0 0-1.515-.557 8.376 8.376 0 0 0-1.873-.189c-.59 0-1.094.07-1.515.21-.42.14-.768.33-1.042.568a2.17 2.17 0 0 0-.6.819c-.126.308-.19.63-.19.966 0 .378.092.703.275.976.182.273.417.512.705.715.287.202.613.377.978.525a19.2 19.2 0 0 0 1.116.409c.589.21 1.182.417 1.778.62.596.203 1.189.41 1.778.62.295.111.653.244 1.073.399.421.154.856.35 1.305.588.449.238.895.528 1.336.871.443.343.839.756 1.19 1.24.35.482.634 1.043.852 1.68.217.637.326 1.375.326 2.215 0 1.05-.26 1.978-.779 2.783a6.626 6.626 0 0 1-2.051 2.016c-.85.54-1.814.95-2.894 1.23a13.2 13.2 0 0 1-3.325.42c-1.01 0-1.965-.057-2.862-.169-.898-.112-1.75-.3-2.557-.566a10.631 10.631 0 0 1-2.304-1.083 10.35 10.35 0 0 1-2.063-1.711l2.988-3.592z" fill="#FFF"/><path d="M49.028 23.509c1.56 1.724 3.224 2.586 4.994 2.586.39 0 .753-.04 1.09-.118.337-.079.627-.203.87-.37a1.87 1.87 0 0 0 .577-.647c.142-.263.213-.578.213-.946 0-.263-.058-.5-.174-.71a1.915 1.915 0 0 0-.458-.552c-.19-.158-.4-.298-.632-.418a5.817 5.817 0 0 0-.696-.308 18.603 18.603 0 0 0-1.288-.48 19.275 19.275 0 0 1-1.287-.482 28.227 28.227 0 0 1-.877-.323 9.849 9.849 0 0 1-1.067-.49 8.708 8.708 0 0 1-1.09-.685 4.982 4.982 0 0 1-.973-.947 4.756 4.756 0 0 1-.703-1.253c-.18-.468-.269-1.007-.269-1.617 0-.757.185-1.42.553-1.987a4.718 4.718 0 0 1 1.47-1.428 7.165 7.165 0 0 1 2.079-.867 9.777 9.777 0 0 1 2.394-.292c1.306 0 2.494.152 3.563.457a8.216 8.216 0 0 1 2.932 1.53l-1.865 2.87a14.131 14.131 0 0 0-.956-.875 5.8 5.8 0 0 0-.988-.662 4.665 4.665 0 0 0-1.138-.418 6.29 6.29 0 0 0-1.406-.142c-.443 0-.822.053-1.138.158a2.266 2.266 0 0 0-.782.426 1.631 1.631 0 0 0-.45.615 1.892 1.892 0 0 0-.143.725c0 .284.068.528.206.734.136.205.313.384.529.536.216.152.46.284.735.394.274.11.553.213.837.307.443.158.888.314 1.336.466.448.153.893.307 1.335.465.221.085.49.184.806.3.316.116.643.263.98.441.337.18.671.397 1.004.655a4.594 4.594 0 0 1 1.532 2.193c.163.478.245 1.032.245 1.664 0 .788-.195 1.484-.584 2.089a4.974 4.974 0 0 1-1.541 1.514 7.55 7.55 0 0 1-2.173.923 9.913 9.913 0 0 1-2.497.316 17.4 17.4 0 0 1-2.15-.127 10.13 10.13 0 0 1-1.92-.426 7.756 7.756 0 0 1-3.279-2.098l2.244-2.696zM62.786 3.762h4.11V24.36c0 .537.086.915.26 1.136.174.22.414.33.72.33.347 0 .642-.046.884-.14l.838-.332.695 2.113a8.097 8.097 0 0 1-2.9 1.215 5.48 5.48 0 0 1-1.082.11 5.94 5.94 0 0 1-1.312-.142 2.657 2.657 0 0 1-1.122-.544c-.327-.268-.59-.639-.79-1.112-.2-.473-.3-1.083-.3-1.83V3.763zM78.362 14.25c-.664 0-1.212.116-1.644.348a2.796 2.796 0 0 0-1.026.914 3.73 3.73 0 0 0-.538 1.294 7.011 7.011 0 0 0-.158 1.498h6.527c0-.442-.032-.902-.095-1.38a3.606 3.606 0 0 0-.427-1.31 2.69 2.69 0 0 0-.956-.977c-.416-.257-.977-.387-1.683-.387zm7.965 11.404c-.654.694-1.283 1.251-1.888 1.672a8.344 8.344 0 0 1-1.81.97 7.81 7.81 0 0 1-1.833.45c-.622.072-1.27.11-1.944.11-1.454 0-2.7-.253-3.738-.758-1.037-.504-1.886-1.177-2.544-2.018a8.36 8.36 0 0 1-1.454-2.902 12.397 12.397 0 0 1-.466-3.407c0-1.136.16-2.221.482-3.257a7.844 7.844 0 0 1 1.47-2.737c.658-.788 1.486-1.419 2.48-1.892.997-.473 2.169-.71 3.517-.71 1.201 0 2.255.163 3.16.489.907.326 1.663.794 2.269 1.404a5.862 5.862 0 0 1 1.367 2.215c.305.868.458 1.838.458 2.91 0 .41-.013.834-.04 1.27-.026.436-.081.891-.165 1.364H74.98c0 .495.09 1.036.269 1.625.179.59.44 1.144.782 1.664s.767.954 1.272 1.301c.506.347 1.085.52 1.739.52.569 0 1.067-.041 1.493-.125a4.418 4.418 0 0 0 1.185-.41c.364-.19.711-.44 1.043-.75.332-.31.688-.696 1.067-1.159l2.497 2.16zm9.744-11.404c-.664 0-1.212.116-1.644.348a2.796 2.796 0 0 0-1.027.914 3.73 3.73 0 0 0-.537 1.294 7.011 7.011 0 0 0-.158 1.498h6.527c0-.442-.032-.902-.095-1.38a3.606 3.606 0 0 0-.427-1.31 2.69 2.69 0 0 0-.956-.977c-.416-.257-.977-.387-1.683-.387zm7.965 11.404c-.654.694-1.283 1.251-1.889 1.672a8.344 8.344 0 0 1-1.809.97 7.81 7.81 0 0 1-1.833.45c-.622.072-1.27.11-1.944.11-1.454 0-2.7-.253-3.738-.758-1.037-.504-1.886-1.177-2.544-2.018a8.36 8.36 0 0 1-1.454-2.902 12.397 12.397 0 0 1-.466-3.407c0-1.136.16-2.221.482-3.257a7.844 7.844 0 0 1 1.47-2.737c.658-.788 1.485-1.419 2.48-1.892.996-.473 2.168-.71 3.517-.71 1.201 0 2.255.163 3.16.489.907.326 1.663.794 2.268 1.404a5.862 5.862 0 0 1 1.368 2.215c.305.868.458 1.838.458 2.91 0 .41-.014.834-.04 1.27-.026.436-.081.891-.166 1.364H92.69c0 .495.09 1.036.269 1.625.179.59.44 1.144.782 1.664s.767.954 1.272 1.301c.506.347 1.085.52 1.739.52.569 0 1.067-.041 1.493-.125a4.418 4.418 0 0 0 1.185-.41c.364-.19.711-.44 1.043-.75.332-.31.688-.696 1.067-1.159l2.497 2.16zm6.331-7.918l5.578-6.293h5.136l-7.76 7.602 8.266 9.432h-4.93l-6.29-7.366v7.366h-4.11V3.715h4.11zm16.27-6.293a30 30 0 0 1 .475 3.407c.2-.463.49-.915.869-1.357.379-.441.8-.833 1.264-1.175.463-.341.95-.617 1.462-.827.51-.21.998-.316 1.462-.316.579 0 1.011.037 1.295.11.285.074.511.148.68.221l-.885 3.706a4.188 4.188 0 0 0-.94-.323 4.4 4.4 0 0 0-.862-.086c-.98 0-1.82.231-2.52.693a5.46 5.46 0 0 0-1.715 1.83l.032 11.15h-4.14V14.315c0-.179-.003-.405-.008-.679l-.016-.836a18.41 18.41 0 0 0-.032-.796 6.007 6.007 0 0 0-.055-.56h3.634z" fill="#00A264"/><path fill="#777" d="M142.015 36.32h.394V3.666h-.394z"/><path fill="#212121" d="M151.856 11.528h2.98v7.388h7.034v-7.388h2.98v16.949h-2.98V21.1h-7.034v7.377h-2.98zm19.225 7.766c.224.03.452.047.683.054.231.008.466.011.704.011.593 0 1.124-.068 1.593-.205.47-.138.867-.336 1.192-.595.326-.26.573-.575.743-.947.17-.371.255-.791.255-1.26 0-.468-.058-.868-.174-1.2a1.684 1.684 0 0 0-.607-.817c-.289-.213-.677-.37-1.165-.47-.487-.101-1.103-.152-1.847-.152h-1.377v5.581zm-.01 9.183h-2.97V11.528h4.812c1.083 0 2.019.108 2.807.325.787.216 1.439.526 1.956.93.516.404.9.894 1.149 1.471.249.577.373 1.23.373 1.958 0 .476-.06.964-.178 1.465a4.48 4.48 0 0 1-.63 1.433c-.299.454-.705.87-1.218 1.244-.513.375-1.163.678-1.951.909l5.17 7.214h-3.35l-4.54-6.933c-.18 0-.387-.004-.618-.01a6.232 6.232 0 0 1-.802-.087l-.01 7.03z"/></g></svg>