<svg width="75" height="70" viewBox="0 0 75 70" xmlns="http://www.w3.org/2000/svg"><title>template</title><path d="M33 45v8a1 1 0 0 1-1 1H8a1 1 0 0 1-1-1V21a1 1 0 0 1 1-1h24a1 1 0 0 1 1 1v24zM37.75.032a1.002 1.002 0 0 1 .927.232 4 4 0 0 1 1.414.922l10.752 10.862a4 4 0 0 1 .817 1.2.998.998 0 0 1 .298 1.038 4 4 0 0 1 .042.576V20a1 1 0 1 1-2 0v-5H38a1 1 0 0 1-1-1V2H4a2 2 0 0 0-2 2v57a2 2 0 0 0 2 2h31a1 1 0 1 1 0 2H4a4 4 0 0 1-4-4V4a4 4 0 0 1 4-4h33.248a4 4 0 0 1 .502.032zM48.97 13L39 2.927V13h9.97zM9 28h10v-6H9v6zm12 0h10v-6H21v6zM9 36h10v-6H9v6zm12 0h10v-6H21v6zM9 44h10v-6H9v6zm12 0h10v-6H21v6zM9 52h10v-6H9v6zm12 0h10v-6H21v6zm53.999 2.247s.202 6.88-4.225 9.7c-4.411 2.81-12.22 5.354-12.22 5.354s-1.743.594-2.528.692V70c-.008 0-.018-.003-.026-.004l-.026.004v-.007c-.785-.098-2.528-.692-2.528-.692s-7.809-2.545-12.22-5.354c-4.427-2.82-4.225-9.7-4.225-9.7V28.38c.026-2.25 4.605-2.224 4.605-2.224L55.974 26h.052l14.368.156s4.58-.027 4.605 2.224v25.867zm-10.743 2.017c.496-.82.744-1.767.744-2.837 0-.856-.104-1.61-.311-2.259a6.61 6.61 0 0 0-.815-1.712 6.048 6.048 0 0 0-1.136-1.263 8.824 8.824 0 0 0-1.278-.889 9.839 9.839 0 0 0-1.246-.6 90.36 90.36 0 0 1-1.026-.406c-.563-.215-1.13-.424-1.7-.631-.57-.208-1.136-.419-1.699-.632a17.128 17.128 0 0 1-1.066-.418 4.484 4.484 0 0 1-.935-.535c-.275-.207-.5-.45-.674-.728-.175-.279-.261-.61-.261-.996 0-.342.06-.67.18-.984.121-.314.312-.592.573-.835.262-.243.594-.436.996-.578.403-.143.885-.215 1.448-.215.67 0 1.267.065 1.79.194a5.713 5.713 0 0 1 1.448.567c.443.25.862.549 1.257.899.396.35.802.746 1.217 1.188l2.373-3.896a10.241 10.241 0 0 0-3.73-2.077c-1.361-.414-2.873-.621-4.536-.621-1.045 0-2.061.132-3.046.396a8.805 8.805 0 0 0-2.645 1.178 6.197 6.197 0 0 0-1.871 1.937c-.469.77-.704 1.67-.704 2.698 0 .828.114 1.56.342 2.194a6.61 6.61 0 0 0 2.132 2.987c.455.357.918.667 1.388.93.47.265.922.486 1.358.665.435.178.807.324 1.116.438.55.243 1.095.461 1.639.654.543.193 1.089.41 1.639.653.295.114.59.253.885.417.295.164.563.353.804.568.242.214.436.463.584.748.147.286.22.608.22.964 0 .5-.09.928-.27 1.285-.182.357-.427.65-.735.877-.308.23-.677.396-1.106.503a5.74 5.74 0 0 1-1.388.162c-2.252 0-4.371-1.171-6.355-3.512L47 56.403a10.09 10.09 0 0 0 1.971 1.745 9.896 9.896 0 0 0 2.202 1.103c.771.27 1.585.463 2.444.577.857.115 1.77.172 2.735.172 1.086 0 2.146-.144 3.178-.428a9.292 9.292 0 0 0 2.765-1.253 6.546 6.546 0 0 0 1.961-2.055z" fill="#A9B8C5"/></svg>