<svg width="75" height="70" viewBox="0 0 75 70" xmlns="http://www.w3.org/2000/svg"><title>terminate</title><path d="M68.301 39.281C65.202 36.03 60.832 34 56 34c-9.369 0-17 7.631-17 17 0 3.82 1.268 7.35 3.406 10.193L68.3 39.28zm1.293 1.526L43.7 62.72C46.798 65.97 51.168 68 56 68c9.369 0 17-7.631 17-17 0-3.82-1.268-7.35-3.406-10.193zM37.75.032a1.002 1.002 0 0 1 .927.232 4 4 0 0 1 1.414.922l10.752 10.862a4 4 0 0 1 .817 1.2.998.998 0 0 1 .298 1.038 4 4 0 0 1 .042.576V26a1 1 0 1 1-2 0V15H38a1 1 0 0 1-1-1V2H4a2 2 0 0 0-2 2v57a2 2 0 0 0 2 2h31a1 1 0 1 1 0 2H4a4 4 0 0 1-4-4V4a4 4 0 0 1 4-4h33.248a4 4 0 0 1 .502.032zM48.97 13L39 2.927V13h9.97zM56 32c10.473 0 19 8.527 19 19s-8.527 19-19 19-19-8.527-19-19 8.527-19 19-19zM8 50a1 1 0 1 1 0-2h24a1 1 0 1 1 0 2H8zm0-6a1 1 0 1 1 0-2h24a1 1 0 1 1 0 2H8zm23.827-13.339c.124.048.238.12.347.226.565.546.826.965.826 1.737v3.346c0 1.07-.663 2.03-1.8 2.03H8.8C7.663 38 7 37.04 7 35.97v-3.346c0-.383.143-.7.377-1a4.27 4.27 0 0 1 .462-.492 1 1 0 0 1 .284-.192l.753-.339c4.818-2.159 6.945-3.286 7.19-3.785v-.802c-1.057-1.386-1.536-2.232-1.794-3.473-.93-1.086-1.11-2.622-.339-3.872v-2.52C13.933 12.359 16.115 10 20 10c3.885 0 6.067 2.36 6.067 6.149v2.263c.786 1.274.583 2.846-.394 3.935-.581 1.654-1.075 2.697-1.74 3.465v.747c.318.666 3.704 2.484 7.894 4.102zM30.999 36L31 32.624c0-.061-.003-.084-.088-.172-5.21-2.025-8.615-3.893-8.958-5.546l-.02-.203v-1.287a1 1 0 0 1 .305-.72c.557-.537 1.016-1.472 1.616-3.21a1 1 0 0 1 .25-.394c.51-.491.597-1.209.172-1.756a1 1 0 0 1-.21-.613v-2.574C24.067 13.43 22.744 12 20 12s-4.067 1.43-4.067 4.149v2.831a1 1 0 0 1-.21.614c-.425.547-.338 1.264.172 1.756a1 1 0 0 1 .29.55c.187 1.078.566 1.737 1.671 3.16a1 1 0 0 1 .21.613v1.287l-.02.203c-.318 1.534-1.755 2.307-8.352 5.263l-.589.265a2.79 2.79 0 0 0-.105.108v3.171c0 .007 7.333.017 22 .03z" fill="#A9B8C5"/></svg>