<svg width="72" height="75" viewBox="0 0 72 75" xmlns="http://www.w3.org/2000/svg"><title>upload</title><path d="M51.618 73l-4.724-9.447a1 1 0 0 0-1.788.894L49.382 73H22.618l4.276-8.553a1 1 0 0 0-1.788-.894L20.382 73H16a1 1 0 0 0 0 2h40a1 1 0 0 0 0-2h-4.382zM37 3.414V30a1 1 0 0 1-2 0V3.414l-6.293 6.293a1 1 0 0 1-1.414-1.414l8-8a1 1 0 0 1 1.414 0l8 8a1 1 0 0 1-1.414 1.414L37 3.414zM26 14a1 1 0 0 1 0 2H6a4 4 0 0 0-4 4v34a4 4 0 0 0 4 4h60a4 4 0 0 0 4-4V20a4 4 0 0 0-4-4H46a1 1 0 0 1 0-2h20a6 6 0 0 1 6 6v34a6 6 0 0 1-6 6H6a6 6 0 0 1-6-6V20a6 6 0 0 1 6-6h20z" fill="#A9B8C5"/></svg>