<svg version="1" xmlns="http://www.w3.org/2000/svg" width="346.667" height="346.667" viewBox="0 0 260.000000 260.000000"><path d="M82 5.3c-45.4.8-52.4 1.5-58 5.6-5.2 3.8-5.1.8-4.7 87.1.3 79.5.3 80.6 2.5 88.5 2.6 9.5 8 20.8 12.2 25.2 5.1 5.6 12 10.3 23.9 16.2 22.9 11.5 63.8 26.5 72.1 26.4 8.2 0 49.2-14.8 71.9-26.1 12.7-6.3 21.3-12.1 25.2-17.3 4.1-5.4 8.8-15.4 11.2-23.8 2.1-7.5 2.2-9.1 2.5-89.4l.3-81.8-3.4-3.4c-1.8-1.8-5.1-3.8-7.2-4.5-8.1-2.5-85.6-3.9-148.5-2.7zm74.3 49.6c9 2.4 19 7 23.8 11l3.3 2.8-7.4 11.4c-4.1 6.3-7.5 11.6-7.6 11.8-.2.2-2.9-1.9-6.1-4.6-3.2-2.7-7.4-5.9-9.4-7.1-7.7-4.6-22.5-6.5-31.4-4.1-2.2.6-5.6 2.8-7.7 4.9-3.4 3.3-3.8 4.3-3.8 8.7 0 4.8 1.5 8.2 5 11.1 2.4 2 7.1 4 27.8 11.3 10.6 3.7 21.7 8.2 24.7 9.9 8 4.6 14.2 11.1 17.8 18.8 3 6.2 3.2 7.5 3.2 17.2 0 9.8-.2 10.9-3 15.8-5.6 10.2-17.8 18.8-32.1 22.7-3.2.9-11.1 1.8-17.4 2.2-25.6 1.3-46.7-4.9-60.9-18L71 177l9.1-11c5.1-6.1 9.4-11 9.7-11 .2 0 3.3 2.7 6.9 6 11.5 10.5 25.2 15.8 38.1 14.7 12.4-1 19.2-7 19.2-16.9 0-8.3-6-13.2-24-19.6-33.7-11.9-44.7-19-51.3-33-11.2-23.9 2.8-45.6 33.8-52.8 9.1-2.1 33.7-1.3 43.8 1.5z"/></svg>